<?xml version="1.0" standalone="no"?>
<!DOCTYPE svg PUBLIC "-//W3C//DTD SVG 20010904//EN"
 "http://www.w3.org/TR/2001/REC-SVG-20010904/DTD/svg10.dtd">
<svg version="1.0" xmlns="http://www.w3.org/2000/svg"
 width="1042.000000pt" height="1280.000000pt" viewBox="0 0 1042.000000 1280.000000"
 preserveAspectRatio="xMidYMid meet">
<metadata>
Created by potrace 1.15, written by Peter Selinger 2001-2017
</metadata>
<g transform="translate(0.000000,1280.000000) scale(0.100000,-0.100000)"
fill="#000000" stroke="none">
<path d="M5005 12790 c-418 -38 -691 -82 -1052 -171 -147 -35 -512 -155 -688
-224 -239 -95 -707 -350 -1047 -572 -320 -210 -1008 -847 -1241 -1151 -40 -52
-85 -110 -100 -130 -35 -45 -237 -368 -294 -472 -129 -229 -267 -550 -364
-844 -38 -115 -69 -217 -69 -227 0 -10 -9 -40 -19 -68 -22 -55 -75 -337 -90
-481 -27 -250 -36 -440 -35 -740 1 -314 2 -332 33 -535 18 -115 39 -255 46
-310 13 -92 55 -259 86 -345 32 -90 49 -139 62 -180 8 -25 46 -139 86 -254 77
-225 214 -520 302 -651 101 -151 147 -235 191 -346 57 -142 75 -226 89 -416 6
-81 17 -186 24 -233 8 -47 21 -132 29 -190 8 -58 26 -149 40 -203 14 -54 30
-148 36 -210 6 -62 15 -137 20 -168 6 -30 10 -71 10 -91 0 -19 11 -57 25 -83
71 -133 72 -308 1 -415 -14 -21 -32 -68 -40 -104 -9 -37 -28 -89 -42 -118
l-26 -52 21 -43 c27 -55 26 -66 -1 -78 -32 -14 -65 -103 -98 -265 -15 -74 -44
-176 -64 -226 -42 -106 -43 -121 -15 -177 27 -54 58 -87 80 -87 10 0 24 10 30
23 20 38 51 67 73 67 61 0 169 119 344 378 117 173 117 173 125 140 5 -18 17
-58 28 -89 10 -31 19 -65 19 -75 0 -11 12 -37 26 -58 28 -42 64 -129 64 -157
0 -10 18 -48 40 -87 22 -38 40 -76 40 -85 0 -21 61 -116 89 -139 12 -10 21
-25 21 -33 0 -17 58 -137 70 -145 4 -3 11 -16 15 -30 4 -14 21 -44 36 -67 16
-23 29 -47 29 -54 0 -17 85 -183 119 -232 16 -24 43 -81 59 -129 43 -122 76
-183 117 -215 19 -15 35 -34 35 -42 0 -7 20 -43 44 -80 24 -36 58 -94 75 -128
17 -34 53 -96 80 -138 28 -42 53 -85 56 -95 4 -11 10 -20 14 -20 5 0 14 -13
21 -29 6 -16 25 -35 41 -41 16 -7 29 -16 29 -20 0 -4 13 -13 30 -20 16 -7 38
-27 49 -45 28 -48 91 -87 147 -91 55 -3 87 -15 174 -66 36 -21 77 -38 92 -38
18 0 33 -9 47 -29 12 -16 38 -35 59 -42 41 -14 329 -19 374 -6 22 6 30 18 47
72 12 35 21 71 21 79 0 9 11 23 24 31 13 9 32 32 41 52 16 34 16 43 1 147 -10
66 -26 129 -40 156 -12 25 -31 74 -40 109 -15 52 -15 68 -5 92 8 20 9 49 4 92
-4 34 -9 82 -10 107 -2 25 -3 52 -4 61 -1 19 -80 138 -136 204 -23 28 -66 88
-95 135 -61 98 -113 167 -199 264 -42 48 -60 75 -55 85 18 42 15 73 -11 125
-15 30 -24 59 -20 66 4 7 -11 62 -33 123 -22 62 -45 130 -51 152 -6 22 -31 64
-56 93 -48 57 -85 130 -85 168 0 36 -84 185 -113 200 -20 11 -25 22 -29 69 -4
42 -13 67 -36 101 -21 29 -32 57 -32 79 0 25 -15 55 -54 112 -69 101 -92 148
-99 200 -6 51 -45 138 -98 220 -27 41 -39 68 -35 81 4 10 -3 39 -14 63 -11 24
-20 57 -20 72 l0 28 58 -39 c94 -64 269 -162 407 -228 251 -121 646 -274 705
-274 10 0 21 -4 24 -8 11 -18 266 -83 536 -136 598 -118 629 -121 1145 -121
278 0 471 5 545 13 211 23 725 122 843 162 31 11 63 20 69 20 7 0 112 32 233
71 204 66 486 175 615 239 198 98 379 196 506 275 18 11 77 48 132 81 150 93
468 335 635 483 309 277 556 574 788 947 20 33 90 142 154 244 170 266 255
448 365 775 148 441 206 673 251 1005 20 146 22 210 23 565 l1 400 -37 246
c-59 389 -107 595 -218 930 -145 439 -320 791 -598 1206 -93 139 -155 221
-349 462 -192 237 -791 773 -1038 928 -222 140 -492 302 -557 335 -243 122
-592 268 -783 326 -241 74 -348 104 -410 117 -38 7 -102 21 -140 29 -39 8
-183 32 -320 52 -237 34 -266 36 -555 39 -168 2 -350 0 -405 -5z m792 -104
c592 -69 1102 -210 1548 -426 55 -26 126 -60 157 -73 32 -14 77 -39 100 -55
24 -16 68 -42 98 -57 123 -62 434 -258 605 -382 309 -225 734 -625 960 -906
262 -327 536 -773 655 -1069 12 -29 26 -61 31 -70 24 -46 131 -326 167 -438
41 -127 89 -300 124 -445 27 -115 90 -506 84 -522 -9 -23 -27 -4 -24 24 2 15
-3 28 -11 31 -12 4 -13 -11 -8 -92 4 -60 3 -96 -3 -96 -6 0 -10 4 -10 8 0 29
-32 261 -43 309 -14 59 -30 73 -35 30 -2 -13 6 -94 18 -181 17 -134 20 -212
20 -534 0 -421 -6 -486 -73 -852 -22 -116 -86 -346 -164 -585 -81 -247 -230
-587 -312 -710 -22 -33 -41 -65 -41 -71 0 -7 -34 -62 -75 -124 -41 -62 -75
-118 -75 -126 0 -25 29 -15 45 16 9 17 37 63 63 103 51 78 58 89 98 157 15 25
37 61 50 80 36 56 162 322 209 444 108 279 202 602 259 886 29 144 66 450 67
560 2 127 17 137 18 13 1 -62 5 -113 10 -113 11 0 21 51 21 114 0 28 5 58 10
66 17 26 11 -142 -10 -334 -39 -339 -115 -663 -246 -1046 -68 -200 -103 -284
-190 -457 -101 -202 -259 -469 -309 -523 -13 -14 -30 -41 -39 -60 -9 -19 -24
-47 -33 -61 -10 -15 -40 -60 -67 -100 -107 -163 -257 -340 -476 -563 -195
-199 -331 -321 -492 -440 -59 -45 -127 -95 -151 -113 -79 -61 -192 -138 -287
-197 -281 -174 -894 -455 -1137 -520 -48 -13 -126 -37 -173 -54 -47 -16 -135
-40 -195 -52 -61 -12 -155 -33 -209 -46 -198 -47 -624 -92 -971 -101 -438 -11
-926 40 -1370 143 -247 57 -664 191 -814 260 -52 24 -98 44 -102 44 -20 0
-368 159 -488 223 -142 76 -171 103 -153 140 6 12 12 31 14 41 2 11 18 29 36
39 41 24 106 17 154 -18 18 -14 44 -29 58 -35 14 -6 47 -28 75 -49 70 -53 140
-90 285 -151 482 -203 842 -312 1273 -384 396 -67 440 -71 907 -71 276 0 465
5 540 13 488 54 991 177 1425 349 77 31 159 58 183 61 23 2 45 9 48 13 3 5 14
9 26 9 11 0 22 8 25 20 6 23 14 25 31 8 8 -8 15 -8 27 2 8 7 68 38 133 70 64
31 126 65 136 76 11 10 36 24 55 30 20 6 63 28 95 50 32 21 84 56 115 76 31
21 71 45 90 53 29 14 33 20 27 46 -6 33 -4 34 24 17 14 -9 25 -10 34 -3 82 58
301 230 376 295 146 127 199 181 369 370 181 201 240 274 307 382 27 42 105
159 174 260 247 363 348 565 487 972 86 253 169 573 188 721 3 28 10 64 15 80
5 17 19 120 30 229 23 226 27 620 9 784 -41 376 -118 767 -205 1044 -39 124
-161 431 -187 469 -13 19 -33 35 -45 37 -26 4 -27 10 -8 31 18 19 11 31 -29
51 -38 20 -57 67 -32 81 19 11 23 44 6 55 -6 3 -18 22 -26 41 -12 29 -18 34
-39 30 -28 -5 -32 7 -7 21 16 9 16 12 0 36 -20 30 -32 33 -46 9 -6 -10 -11
-13 -11 -5 0 7 5 21 12 32 19 30 -1 74 -35 78 -29 4 -34 11 -15 30 15 15 -7
42 -34 42 -17 0 -19 5 -14 26 4 15 2 32 -5 40 -10 13 -14 12 -30 -2 -18 -16
-19 -16 -19 -1 0 10 5 17 10 17 17 0 11 27 -17 69 -18 29 -34 41 -50 41 -25 0
-29 10 -11 28 15 15 -7 42 -33 42 -13 0 -19 7 -19 21 0 13 -8 23 -20 26 -14 4
-19 11 -15 22 7 23 -43 87 -76 100 -14 5 -70 61 -123 124 -297 355 -704 705
-1197 1030 -351 232 -673 388 -1069 520 -344 115 -713 199 -1030 233 -197 21
-637 21 -875 -1 -330 -29 -743 -100 -935 -160 -63 -20 -126 -35 -140 -33 -14
2 -33 -3 -42 -11 -16 -14 -182 -83 -358 -150 -372 -142 -913 -450 -1225 -698
-55 -43 -129 -100 -165 -125 -36 -26 -121 -99 -190 -163 -69 -64 -155 -141
-191 -170 -77 -63 -232 -225 -332 -348 -40 -49 -93 -113 -119 -144 -61 -72
-249 -350 -322 -477 -206 -358 -404 -859 -496 -1259 -45 -193 -89 -481 -100
-647 -21 -322 -9 -701 30 -990 11 -79 59 -313 91 -441 31 -127 107 -353 190
-567 44 -112 79 -208 79 -214 0 -6 39 -81 86 -167 48 -86 93 -168 101 -183 17
-32 15 -319 -2 -325 -14 -4 -115 150 -199 304 -226 414 -410 929 -510 1433
-62 309 -70 394 -70 800 0 341 2 378 27 565 51 377 93 566 191 858 196 586
475 1108 811 1514 108 131 555 581 680 684 91 76 122 100 295 233 306 234 821
530 1204 691 479 202 1080 338 1656 375 195 12 690 4 847 -14z m-112 -247 c66
-5 145 -16 175 -24 30 -7 85 -16 122 -20 37 -4 70 -11 73 -16 4 -5 17 -9 30
-9 34 0 509 -108 579 -131 33 -11 102 -43 153 -70 56 -29 107 -49 126 -49 18
0 48 -10 67 -23 43 -28 123 -62 170 -72 42 -9 168 -68 203 -95 14 -11 56 -32
94 -46 173 -65 440 -218 659 -379 223 -163 387 -305 610 -530 194 -195 267
-280 412 -478 29 -39 95 -128 146 -197 51 -69 111 -156 133 -195 64 -113 249
-477 278 -546 14 -35 41 -95 60 -134 19 -38 40 -92 46 -120 7 -27 25 -89 40
-136 43 -135 95 -356 135 -569 75 -403 75 -405 81 -795 5 -394 -5 -600 -31
-640 -9 -13 -16 -37 -16 -52 0 -32 -73 -374 -95 -448 -9 -27 -20 -63 -25 -80
-5 -16 -19 -68 -30 -115 -57 -226 -119 -380 -276 -690 -124 -246 -199 -372
-347 -585 -152 -220 -197 -276 -395 -494 -144 -158 -199 -210 -329 -312 -86
-67 -195 -155 -242 -194 -47 -39 -106 -83 -131 -98 -25 -15 -56 -36 -70 -46
-54 -40 -333 -213 -402 -249 -40 -22 -104 -58 -143 -82 -38 -24 -110 -61 -160
-83 -49 -22 -94 -43 -100 -47 -5 -5 -68 -32 -140 -60 -954 -383 -2008 -459
-3080 -220 -186 41 -468 121 -602 171 -152 57 -666 293 -683 314 -6 8 -7 30
-1 61 23 122 -31 205 -166 254 -26 10 -33 18 -33 39 1 41 36 110 88 168 26 30
70 85 97 123 28 38 91 118 140 179 94 116 142 191 226 355 51 100 119 285 119
326 0 25 81 180 117 224 32 39 67 110 87 174 8 29 29 79 45 110 82 155 167
393 191 531 7 36 18 198 25 360 13 281 15 300 41 371 42 114 39 208 -15 424
-23 92 -40 174 -37 182 3 8 16 14 29 14 19 0 36 17 75 73 66 95 70 99 113 87
50 -15 80 -12 122 10 20 11 42 20 49 20 25 0 48 -34 48 -69 0 -49 18 -111 35
-117 44 -17 200 119 240 210 46 104 50 182 14 307 l-13 47 48 63 c26 35 49 75
52 89 3 14 12 43 20 65 10 29 14 86 14 194 l0 154 -52 99 c-37 70 -63 107 -86
123 -19 13 -44 39 -56 57 -50 80 -122 160 -156 174 -19 8 -65 33 -102 56 -38
22 -74 38 -82 35 -8 -3 -64 13 -123 36 l-108 41 -170 4 c-148 3 -187 0 -301
-21 -80 -15 -151 -35 -182 -51 -28 -14 -57 -26 -63 -26 -7 0 -35 -17 -63 -38
-55 -40 -62 -45 -146 -93 -91 -52 -114 -73 -223 -206 -57 -71 -117 -139 -132
-153 -15 -14 -44 -47 -65 -75 -21 -27 -82 -95 -135 -149 -54 -55 -114 -125
-133 -155 -19 -31 -55 -78 -79 -105 -23 -26 -43 -54 -43 -61 0 -7 -15 -35 -33
-61 -19 -27 -49 -77 -67 -112 -26 -49 -60 -88 -150 -170 -135 -124 -198 -177
-255 -213 -42 -27 -90 -80 -139 -154 -14 -22 -54 -71 -87 -110 -80 -91 -115
-162 -122 -246 -3 -36 -22 -112 -42 -170 -55 -156 -141 -450 -169 -574 -32
-142 -76 -490 -76 -597 0 -118 -11 -248 -22 -248 -11 0 -144 277 -206 430
-177 438 -301 929 -333 1309 -15 184 -6 759 15 901 47 321 85 487 176 760 86
259 123 346 299 698 209 420 277 530 494 802 120 151 461 493 647 650 148 125
397 314 530 401 115 77 355 216 467 273 85 42 469 216 478 216 3 0 57 21 121
46 129 50 300 100 499 145 289 65 615 129 710 140 253 28 624 32 900 8z
m-1970 -3073 c33 -9 117 -29 187 -46 150 -35 177 -47 283 -134 44 -36 82 -66
85 -66 4 0 16 -18 29 -40 14 -25 29 -40 42 -40 23 0 36 -27 21 -42 -8 -8 -7
-19 4 -40 22 -42 11 -60 -12 -21 -19 33 -44 44 -44 21 0 -25 21 -87 31 -94 6
-3 17 2 25 12 14 18 15 17 9 -11 -4 -16 -9 -68 -12 -115 -5 -96 -16 -118 -32
-68 -9 28 -30 157 -31 194 0 7 -11 15 -25 18 -17 4 -37 28 -65 75 -48 83 -93
131 -123 131 -12 0 -43 8 -70 17 -44 16 -48 16 -64 0 -23 -23 -3 -67 30 -67
34 0 101 -48 138 -98 17 -23 35 -42 40 -42 16 0 49 -82 49 -120 l0 -35 -21 33
c-19 29 -39 42 -39 25 0 -4 10 -31 21 -59 35 -84 6 -120 -30 -39 -33 74 -55
98 -125 134 -57 29 -70 32 -103 24 -33 -8 -38 -13 -38 -36 1 -27 0 -27 -71
-27 -53 0 -75 4 -85 16 -34 41 -115 58 -140 28 -14 -17 -7 -25 63 -76 21 -15
21 -17 6 -23 -12 -5 -34 4 -65 24 -52 35 -80 39 -98 15 -10 -15 -18 -13 -73
15 -61 31 -122 41 -122 20 0 -6 12 -26 26 -45 15 -19 24 -37 21 -41 -4 -3 -38
15 -76 40 -78 52 -87 69 -98 190 -5 53 -2 76 12 107 18 39 15 70 -6 70 -6 0
-29 -17 -50 -39 -36 -36 -39 -43 -39 -96 0 -46 7 -73 35 -131 19 -40 35 -75
35 -78 0 -7 -55 -36 -68 -36 -5 0 -14 11 -20 25 -10 21 -18 25 -56 25 -39 0
-48 5 -84 44 -22 24 -43 57 -47 75 -4 21 -17 37 -37 47 l-30 16 23 24 c20 22
21 26 8 40 -22 21 -49 7 -49 -25 0 -60 -12 -101 -30 -101 -10 0 -21 -7 -24
-16 -7 -18 8 -90 28 -139 16 -37 13 -45 -19 -45 -32 0 -67 31 -98 89 -26 47
-27 52 -13 78 8 15 47 65 86 111 58 66 90 93 169 138 53 31 118 72 145 91 26
19 99 52 161 73 99 35 130 40 266 50 85 7 156 14 158 16 3 2 12 2 20 0 9 -3
43 -12 76 -20z m-855 -525 c15 -30 12 -53 -6 -49 -23 4 -39 32 -31 52 9 22 24
20 37 -3z m1560 -48 c0 -7 -4 -13 -10 -13 -5 0 -10 12 -10 28 0 21 2 24 10 12
5 -8 10 -21 10 -27z m-1860 -11 c0 -16 6 -50 14 -75 16 -53 12 -57 -21 -25
-31 29 -87 15 -91 -22 -8 -82 -14 -109 -27 -126 -14 -18 -14 -18 -30 4 -22 30
-40 28 -82 -13 -30 -29 -34 -39 -29 -62 24 -97 17 -105 -33 -43 -26 33 -30 43
-21 59 5 11 62 72 125 135 63 63 115 119 115 125 0 16 51 71 66 71 9 0 14 -11
14 -28z m1905 -38 c6 -59 3 -85 -9 -73 -11 11 -18 139 -9 139 6 0 14 -30 18
-66z m-470 22 c23 -35 57 -126 47 -126 -5 0 -23 18 -41 40 -17 22 -40 40 -49
40 -9 0 -26 7 -36 15 -11 8 -29 15 -40 15 -31 0 -7 18 39 29 60 14 63 13 80
-13z m-1025 -26 c0 -5 -7 -10 -16 -10 -8 0 -12 5 -9 10 3 6 10 10 16 10 5 0 9
-4 9 -10z m-11 -51 c-16 -10 -23 -4 -14 10 3 6 11 8 17 5 6 -4 5 -9 -3 -15z
m1281 -15 c0 -8 -4 -14 -10 -14 -5 0 -10 9 -10 21 0 11 5 17 10 14 6 -3 10
-13 10 -21z m-1055 6 c-3 -5 -13 -10 -21 -10 -8 0 -14 5 -14 10 0 6 9 10 21
10 11 0 17 -4 14 -10z m599 4 c9 -3 16 -10 16 -14 0 -8 -80 6 -89 16 -7 6 55
5 73 -2z m336 -10 c0 -9 -5 -14 -12 -12 -18 6 -21 28 -4 28 9 0 16 -7 16 -16z
m-850 -24 c0 -5 -4 -10 -10 -10 -5 0 -10 5 -10 10 0 6 5 10 10 10 6 0 10 -4
10 -10z m190 0 c0 -5 -6 -10 -14 -10 -8 0 -18 5 -21 10 -3 6 3 10 14 10 12 0
21 -4 21 -10z m301 -30 c44 -23 79 -71 79 -111 0 -37 -40 -70 -92 -76 -38 -4
-48 -1 -76 25 -22 21 -32 39 -32 60 0 56 36 122 67 122 8 0 32 -9 54 -20z
m-883 -12 c-6 -16 -33 -22 -56 -13 -14 5 -14 7 -2 15 22 14 62 12 58 -2z m702
-18 c0 -11 -4 -20 -10 -20 -5 0 -10 9 -10 20 0 11 5 20 10 20 6 0 10 -9 10
-20z m-527 3 c8 -7 -21 -43 -35 -43 -13 0 -9 38 5 43 18 8 23 8 30 0z m-289
-28 c26 -24 34 -45 18 -45 -5 0 -17 8 -26 19 -9 10 -31 21 -47 25 -17 3 -28
10 -24 16 11 18 51 11 79 -15z m1141 -15 c17 -33 18 -40 7 -40 -9 0 -32 44
-32 60 0 18 9 10 25 -20z m555 10 c0 -6 -8 -13 -17 -17 -10 -3 -26 -13 -36
-21 -28 -25 -31 -6 -4 22 26 26 57 35 57 16z m-1060 -15 c17 -9 30 -19 30 -24
0 -4 -28 -11 -63 -13 -35 -3 -81 -15 -104 -27 -51 -26 -53 -26 -53 -3 0 19 29
51 65 70 29 16 91 14 125 -3z m730 -16 c0 -11 -4 -17 -10 -14 -5 3 -10 15 -10
26 0 11 5 17 10 14 6 -3 10 -15 10 -26z m-635 1 c3 -5 1 -10 -4 -10 -6 0 -11
5 -11 10 0 6 2 10 4 10 3 0 8 -4 11 -10z m-916 -31 c26 -35 23 -44 -13 -35
-25 6 -42 37 -31 56 10 16 20 12 44 -21z m519 0 c4 -23 -28 -33 -47 -14 -14
14 -14 17 -1 25 21 14 44 8 48 -11z m-325 -25 c27 -37 10 -45 -19 -9 -13 17
-24 33 -24 37 0 14 25 -3 43 -28z m-375 -3 c20 -10 48 -31 62 -47 14 -15 19
-24 12 -20 -7 4 -32 0 -56 -9 -25 -10 -49 -14 -55 -10 -11 6 -16 105 -6 105 3
0 22 -9 43 -19z m1171 -40 c24 -34 19 -42 -19 -31 -44 13 -64 26 -51 34 6 4
11 16 11 27 0 16 3 18 19 9 11 -5 29 -23 40 -39z m361 0 c0 -16 -7 -34 -15
-41 -13 -10 -15 -9 -15 10 0 13 -7 32 -17 42 -15 17 -14 18 15 18 29 0 32 -3
32 -29z m-1701 -48 c1 -16 3 -53 5 -83 2 -30 6 -62 10 -70 7 -16 -38 -50 -66
-50 -24 0 -88 66 -88 90 0 23 106 140 127 140 6 0 11 -12 12 -27z m1041 18 c0
-9 -24 -21 -42 -21 -6 0 -6 6 2 15 14 16 40 20 40 6z m-113 -32 c38 -24 38
-37 -1 -59 -25 -14 -28 -13 -41 4 -8 10 -16 24 -19 30 -3 7 -8 6 -15 -4 -13
-18 -5 -58 16 -82 11 -13 12 -21 3 -38 -6 -12 -17 -19 -23 -17 -7 2 -22 0 -34
-4 -14 -5 -25 -4 -29 2 -12 20 7 97 36 143 34 53 54 57 107 25z m-697 -4 c0
-8 -4 -15 -10 -15 -5 0 -10 7 -10 15 0 8 5 15 10 15 6 0 10 -7 10 -15z m470 5
c0 -5 -6 -10 -14 -10 -8 0 -18 5 -21 10 -3 6 3 10 14 10 12 0 21 -4 21 -10z
m601 -16 c11 -10 30 -12 67 -7 37 4 56 2 68 -8 10 -8 33 -14 52 -14 31 0 36
-4 53 -47 10 -26 21 -76 25 -111 6 -61 5 -67 -27 -116 l-34 -52 -3 33 c-2 18
2 57 8 87 12 54 12 55 -14 74 -28 20 -35 47 -11 47 8 0 15 6 15 13 0 34 -117
56 -329 61 -163 4 -190 10 -145 34 61 32 241 36 275 6z m-1021 -5 c0 -6 -4 -7
-10 -4 -5 3 -10 11 -10 16 0 6 5 7 10 4 6 -3 10 -11 10 -16z m100 0 c0 -6 -4
-7 -10 -4 -5 3 -10 11 -10 16 0 6 5 7 10 4 6 -3 10 -11 10 -16z m120 11 c0 -5
-7 -10 -15 -10 -8 0 -15 5 -15 10 0 6 7 10 15 10 8 0 15 -4 15 -10z m1330 -20
c0 -5 -5 -10 -11 -10 -5 0 -7 5 -4 10 3 6 8 10 11 10 2 0 4 -4 4 -10z m-1626
-61 c27 -32 37 -94 14 -87 -12 4 -67 94 -68 111 0 18 30 4 54 -24z m106 -5 c0
-8 -4 -14 -10 -14 -5 0 -10 9 -10 21 0 11 5 17 10 14 6 -3 10 -13 10 -21z
m-210 2 c0 -24 -16 -27 -35 -6 -18 19 -17 20 8 20 17 0 27 -5 27 -14z m1890
-26 c5 0 10 9 10 20 0 29 23 24 49 -10 23 -32 41 -32 41 1 0 56 51 -23 65
-103 13 -68 -52 -203 -109 -229 -27 -13 -198 20 -286 54 -47 19 -58 29 -78 67
-12 25 -27 47 -32 48 -16 6 -12 22 5 22 9 0 18 6 21 14 5 12 11 13 30 4 18 -9
30 -8 50 2 20 11 29 12 44 2 31 -19 49 -14 55 16 3 15 12 40 20 55 8 16 15 37
15 46 0 29 11 31 51 11 21 -11 43 -20 49 -20z m-1570 14 c0 -8 -4 -12 -10 -9
-5 3 -10 10 -10 16 0 5 5 9 10 9 6 0 10 -7 10 -16z m1380 12 c0 -11 -19 -15
-25 -6 -3 5 1 10 9 10 9 0 16 -2 16 -4z m-1650 -16 c0 -5 -2 -10 -4 -10 -3 0
-8 5 -11 10 -3 6 -1 10 4 10 6 0 11 -4 11 -10z m1514 -14 c-6 -16 -34 -29 -43
-20 -6 6 27 34 41 34 4 0 5 -6 2 -14z m-484 -6 c0 -5 -4 -10 -10 -10 -5 0 -10
5 -10 10 0 6 5 10 10 10 6 0 10 -4 10 -10z m242 -45 c4 -22 7 -64 7 -94 1 -44
-1 -51 -12 -42 -18 14 -27 4 -27 -31 0 -16 -10 -38 -22 -50 l-23 -23 -8 45
c-5 25 -9 62 -10 83 -1 23 -6 37 -14 37 -16 0 -16 5 -2 33 49 94 98 113 111
42z m-1142 25 c0 -5 -4 -10 -10 -10 -5 0 -10 5 -10 10 0 6 5 10 10 10 6 0 10
-4 10 -10z m7830 -9 c0 -6 -4 -13 -10 -16 -5 -3 -10 1 -10 9 0 9 5 16 10 16 6
0 10 -4 10 -9z m-7190 -27 c0 -16 -16 -19 -25 -4 -8 13 4 32 16 25 5 -4 9 -13
9 -21z m-995 -18 c11 -7 39 -17 62 -21 46 -7 93 -38 93 -61 0 -11 -12 -8 -52
12 -29 15 -68 28 -86 30 -37 3 -62 19 -62 40 0 18 20 18 45 0z m8185 -10 c0
-8 -4 -18 -10 -21 -5 -3 -10 3 -10 14 0 12 5 21 10 21 6 0 10 -6 10 -14z
m-7221 -57 c55 -24 47 -33 -21 -25 -58 8 -94 28 -83 46 8 14 41 7 104 -21z
m211 6 c15 -16 33 -24 48 -23 33 4 40 -19 9 -31 -13 -5 -27 -19 -30 -30 -14
-54 -67 8 -67 79 0 37 9 38 40 5z m148 8 c11 -22 5 -43 -13 -43 -19 0 -25 13
-18 38 7 27 19 28 31 5z m-1404 -25 c-8 -26 -22 -38 -46 -38 -27 0 -21 23 10
42 36 23 45 22 36 -4z m8276 -20 c0 -10 -4 -18 -10 -18 -5 0 -10 15 -10 33 0
24 3 28 10 17 5 -8 10 -23 10 -32z m-7947 -11 c18 -8 38 -21 46 -30 12 -16 8
-17 -53 -17 l-67 0 16 30 c18 35 16 34 58 17z m528 -33 c28 -25 79 -32 128
-17 50 15 127 17 135 5 3 -5 -29 -14 -72 -20 -42 -7 -87 -20 -101 -29 -23 -15
-134 -27 -211 -24 -14 1 -60 3 -103 5 -84 3 -109 15 -87 41 16 20 84 20 141 0
52 -19 99 -7 123 31 19 28 24 29 47 8z m7372 -76 c10 -125 8 -276 -3 -283 -6
-4 -10 16 -10 52 0 32 -3 115 -7 186 -4 83 -3 127 4 127 6 0 13 -37 16 -82z
m-8018 61 c11 -17 -1 -21 -15 -4 -8 9 -8 15 -2 15 6 0 14 -5 17 -11z m1525 -9
c0 -5 -4 -10 -10 -10 -5 0 -10 5 -10 10 0 6 5 10 10 10 6 0 10 -4 10 -10z
m6540 6 c0 -3 -4 -8 -10 -11 -5 -3 -10 -1 -10 4 0 6 5 11 10 11 6 0 10 -2 10
-4z m-8090 -46 c0 -5 -5 -10 -11 -10 -5 0 -7 5 -4 10 3 6 8 10 11 10 2 0 4 -4
4 -10z m-399 -28 c-5 -9 -26 -33 -46 -52 -20 -19 -46 -50 -57 -69 -12 -18 -36
-40 -54 -47 -18 -8 -38 -23 -44 -34 -6 -11 -23 -26 -38 -34 -16 -8 -52 -36
-81 -62 -28 -25 -54 -44 -58 -41 -10 11 25 54 93 113 37 33 114 103 171 157
58 53 109 95 114 92 5 -4 5 -13 0 -23z m1831 -12 c-4 -52 -18 -58 -36 -15 -18
43 -13 57 17 53 18 -3 22 -9 19 -38z m-1316 -6 c19 7 64 -3 64 -15 0 -5 -27
-9 -60 -9 -43 0 -60 4 -60 13 0 21 12 28 26 16 8 -6 21 -8 30 -5z m785 -13
c16 -16 29 -36 29 -44 0 -20 61 -57 93 -57 32 0 37 -7 30 -43 -6 -32 -14 -33
-50 -9 -15 9 -49 26 -77 37 -72 29 -156 78 -152 90 2 6 16 9 31 7 25 -3 27 -1
21 22 -6 23 -3 26 20 26 15 0 37 -12 55 -29z m228 -16 c33 -37 35 -44 25 -69
-10 -25 -25 -19 -71 26 -44 43 -52 63 -30 71 28 12 47 5 76 -28z m-701 -7 c28
-17 43 -19 91 -14 42 5 65 3 87 -9 16 -8 41 -15 55 -15 28 0 124 -47 178 -88
18 -13 54 -33 80 -42 29 -11 51 -27 59 -44 7 -14 20 -26 28 -26 7 0 14 -6 14
-13 0 -41 -75 -52 -89 -14 -16 41 -38 50 -143 58 -55 4 -105 12 -111 18 -5 5
-23 7 -38 4 -17 -3 -35 0 -44 7 -28 23 -5 33 64 26 77 -7 109 5 77 29 -23 18
-75 19 -109 4 -21 -9 -31 -7 -63 15 -48 32 -53 32 -114 1 -53 -27 -124 -33
-151 -12 -29 22 -42 56 -27 74 11 13 7 20 -22 45 l-35 30 90 -7 c63 -5 100
-13 123 -27z m-623 -29 c8 -23 18 -24 35 -4 13 16 95 21 103 7 9 -13 -41 -62
-63 -62 -12 0 -32 -13 -46 -29 -14 -17 -34 -33 -44 -36 -15 -5 -20 -15 -20
-41 0 -24 -5 -36 -17 -40 -37 -12 -89 -37 -114 -55 -22 -15 -29 -16 -43 -6
-15 11 -16 17 -5 40 10 23 10 30 -6 47 -16 17 -16 20 -2 20 9 0 37 18 62 40
25 22 54 40 64 40 25 0 46 26 30 36 -9 5 -7 11 5 20 20 14 14 34 -10 34 -8 0
-14 3 -14 8 0 4 18 6 40 4 28 -3 41 -10 45 -23z m8291 4 c-10 -10 -19 5 -10
18 6 11 8 11 12 0 2 -7 1 -15 -2 -18z m-7967 -37 c13 -15 5 -66 -10 -66 -5 0
-9 9 -9 21 0 13 -11 25 -35 35 -19 8 -35 16 -35 19 0 12 79 4 89 -9z m1131
-27 c7 -11 9 -23 7 -26 -9 -9 -47 17 -47 32 0 22 28 18 40 -6z m-990 -40 c0
-18 -35 -5 -38 14 -3 16 -1 17 17 7 12 -6 21 -15 21 -21z m928 -57 c-7 -38
-23 -18 -24 31 l-1 52 14 -34 c8 -18 13 -40 11 -49z m6897 58 c3 -5 1 -10 -4
-10 -6 0 -11 5 -11 10 0 6 2 10 4 10 3 0 8 -4 11 -10z m-8497 -21 c-2 -6 -8
-10 -13 -10 -5 0 -11 4 -13 10 -2 6 4 11 13 11 9 0 15 -5 13 -11z m867 -18
c-6 -4 -31 -15 -57 -24 -54 -18 -66 -4 -15 18 36 16 87 20 72 6z m-520 -48
c-20 -48 -22 -49 -67 -57 -53 -10 -48 8 12 46 28 17 50 35 50 39 0 5 5 9 10 9
6 0 4 -16 -5 -37z m8155 1 c0 -13 -4 -24 -9 -24 -11 0 -22 40 -15 52 9 15 24
-2 24 -28z m-7854 -25 c64 -32 77 -55 45 -77 -14 -9 -61 -52 -105 -94 -53 -52
-88 -78 -103 -78 -13 0 -40 -7 -60 -15 -44 -19 -61 -19 -95 -1 -27 14 -30 13
-98 -38 -76 -58 -77 -58 -170 -26 -56 20 -65 33 -45 64 18 28 30 32 40 16 11
-18 42 -10 80 20 29 23 48 30 82 30 37 0 44 3 41 18 -2 13 -15 18 -51 20 -40
3 -56 -2 -95 -28 -47 -31 -47 -31 -56 -9 -8 18 -5 25 17 41 28 20 36 48 15 48
-9 0 -8 4 2 10 8 5 36 10 62 10 37 0 51 -5 60 -20 17 -27 23 -25 46 12 22 35
26 31 36 -32 14 -97 16 -100 50 -93 66 12 79 33 54 88 -8 18 -19 25 -40 25
-31 0 -38 20 -13 40 8 7 15 18 15 26 0 22 20 27 39 10 25 -23 31 -20 31 12 0
46 17 54 96 50 49 -3 87 -13 120 -29z m1054 12 c0 -14 -18 -23 -30 -16 -6 4
-8 11 -5 16 8 12 35 12 35 0z m-830 -11 c0 -5 -9 -10 -21 -10 -11 0 -17 5 -14
10 3 6 13 10 21 10 8 0 14 -4 14 -10z m193 -3 c48 7 127 -20 163 -58 27 -28
28 -31 12 -43 -14 -10 -31 -9 -90 7 -128 34 -171 38 -230 23 -47 -12 -57 -19
-90 -67 -22 -31 -38 -66 -38 -82 0 -15 -13 -54 -30 -87 -33 -66 -38 -96 -15
-86 8 3 22 9 30 12 28 11 15 -14 -17 -34 -60 -37 -80 -36 -111 5 -15 20 -26
44 -25 52 2 8 23 29 48 46 38 27 47 39 56 81 15 66 51 144 65 144 17 0 172 70
188 86 10 9 20 10 31 4 10 -5 33 -7 53 -3z m-1252 -16 c22 -18 22 -20 6 -26
-19 -8 -47 10 -47 31 0 19 14 17 41 -5z m959 9 c0 -5 -4 -10 -10 -10 -5 0 -10
5 -10 10 0 6 5 10 10 10 6 0 10 -4 10 -10z m872 -52 c-1 -20 2 -39 8 -43 13
-8 13 -25 0 -25 -12 0 -24 27 -35 78 -6 30 -5 33 12 30 14 -3 17 -11 15 -40z
m-1762 -17 c0 -5 -7 -12 -16 -15 -24 -9 -28 -7 -14 9 14 17 30 20 30 6z m1875
-1 c3 -5 1 -10 -4 -10 -6 0 -11 5 -11 10 0 6 2 10 4 10 3 0 8 -4 11 -10z
m-2175 -34 c0 -2 -13 -32 -30 -67 -33 -71 -100 -154 -100 -125 0 27 56 138 84
169 21 23 46 36 46 23z m366 -31 c14 -36 -5 -62 -62 -84 -31 -11 -58 -21 -60
-21 -2 0 -4 15 -4 33 0 30 5 35 53 59 62 32 66 32 73 13z m1064 5 c0 -5 -7
-10 -16 -10 -8 0 -12 5 -9 10 3 6 10 10 16 10 5 0 9 -4 9 -10z m-71 -13 c13
-16 5 -27 -20 -27 -24 0 -35 20 -18 31 19 12 25 11 38 -4z m-1144 -47 c-5 -8
-11 -8 -17 -2 -6 6 -7 16 -3 22 5 8 11 8 17 2 6 -6 7 -16 3 -22z m1550 19 c9
-14 -3 -59 -16 -59 -6 0 -8 7 -5 17 5 11 -1 23 -16 35 l-23 18 27 0 c15 0 30
-5 33 -11z m140 -18 c7 -23 -22 -131 -35 -131 -18 0 -22 41 -6 59 9 10 16 34
16 54 0 39 15 50 25 18z m-1815 5 c0 -2 -7 -9 -15 -16 -12 -10 -15 -10 -15 4
0 9 7 16 15 16 8 0 15 -2 15 -4z m1500 -11 c35 -7 68 -11 72 -9 16 10 16 -15
-1 -30 -21 -19 -98 -35 -203 -43 -63 -4 -67 -3 -83 21 -16 24 -16 28 -1 51 15
23 23 25 84 25 37 -1 96 -7 132 -15z m-580 -45 c0 -5 -5 -10 -11 -10 -5 0 -7
5 -4 10 3 6 8 10 11 10 2 0 4 -4 4 -10z m713 -47 c-3 -9 -9 -11 -15 -5 -5 5
-6 17 -2 26 5 13 9 14 14 5 5 -7 6 -19 3 -26z m227 13 c0 -8 -4 -17 -9 -20
-10 -7 -23 19 -14 28 11 11 23 6 23 -8z m-1622 -51 c2 -20 -8 -45 -27 -74 -40
-60 -27 -75 18 -22 27 30 43 41 64 41 57 0 67 -13 91 -122 8 -36 22 -35 45 3
15 25 89 79 107 79 3 0 9 -11 14 -25 7 -19 17 -25 40 -25 18 0 33 -6 36 -15
13 -33 -64 -105 -112 -105 -22 0 -34 23 -34 68 0 35 -15 26 -44 -27 -22 -41
-34 -52 -73 -65 -51 -17 -57 -14 -69 32 -5 19 -11 22 -28 17 -11 -4 -47 -9
-78 -12 -56 -5 -58 -4 -68 22 -13 33 -3 69 46 167 19 37 34 75 34 83 0 31 35
12 38 -20z m622 8 c-1 -11 -50 -66 -55 -61 -7 6 34 68 45 68 5 0 10 -3 10 -7z
m347 -33 c24 0 10 -34 -20 -48 -26 -13 -37 -32 -17 -32 6 0 10 -4 10 -10 0
-13 -27 -13 -35 -1 -3 5 0 31 6 58 19 79 20 81 32 56 5 -13 16 -23 24 -23z
m-1287 17 c0 -8 -9 -22 -20 -32 -19 -18 -20 -17 -20 1 0 20 17 44 32 44 4 0 8
-6 8 -13z m240 -5 c0 -21 -18 -42 -37 -42 -18 0 -16 20 4 42 21 23 33 23 33 0z
m-170 -13 c0 -16 4 -19 20 -14 11 3 20 4 20 2 0 -17 -112 -237 -121 -237 -7 0
-9 9 -5 23 3 12 9 33 13 47 6 23 5 24 -11 11 -32 -27 -28 -2 17 93 44 93 67
118 67 75z m1625 -16 c-5 -31 -4 -36 6 -25 19 18 28 15 22 -8 -8 -31 -21 -33
-38 -7 -13 20 -14 29 -4 51 17 37 22 32 14 -11z m-1285 7 c0 -5 -4 -10 -10
-10 -5 0 -10 5 -10 10 0 6 5 10 10 10 6 0 10 -4 10 -10z m1589 -45 c23 -62 27
-100 10 -111 -15 -9 -25 10 -33 64 -3 25 -11 51 -17 58 -12 15 -5 44 10 44 5
0 19 -25 30 -55z m-528 21 c153 -33 200 -96 79 -107 -24 -2 -34 1 -32 9 1 7
-8 12 -21 12 -31 0 -131 61 -135 83 -4 21 18 22 109 3z m-1570 -49 c-13 -13
-15 1 -4 30 7 17 8 17 11 -1 2 -10 -1 -23 -7 -29z m-63 11 c5 -24 -26 -90 -38
-83 -13 8 -13 46 0 80 11 28 33 29 38 3z m1922 -1 c0 -7 -6 -21 -13 -32 -19
-26 -30 -3 -11 23 17 25 24 28 24 9z m-570 -33 c0 -8 -4 -14 -10 -14 -5 0 -10
9 -10 21 0 11 5 17 10 14 6 -3 10 -13 10 -21z m-1094 -49 c-18 -42 -41 -40
-25 3 13 34 32 57 37 44 2 -6 -4 -27 -12 -47z m769 -2 c-38 -65 -74 -113 -86
-113 -17 0 1 42 35 82 17 20 39 48 49 63 31 43 32 20 2 -32z m515 21 c0 -8 -4
-12 -10 -9 -5 3 -10 10 -10 16 0 5 5 9 10 9 6 0 10 -7 10 -16z m85 -4 c-3 -5
-15 -10 -26 -10 -10 0 -19 5 -19 10 0 6 12 10 26 10 14 0 23 -4 19 -10z m-687
-37 c-18 -42 -39 -73 -49 -73 -11 0 16 56 39 83 21 24 23 21 10 -10z m123 -6
c-13 -13 -26 -3 -16 12 3 6 11 8 17 5 6 -4 6 -10 -1 -17z m184 -17 c0 -7 -6
-15 -12 -17 -8 -3 -13 4 -13 17 0 13 5 20 13 18 6 -3 12 -11 12 -18z m-170
-10 c3 -5 1 -10 -4 -10 -6 0 -11 5 -11 10 0 6 2 10 4 10 3 0 8 -4 11 -10z
m302 -8 c13 -8 8 -19 -18 -40 -14 -10 -20 -10 -33 3 -25 25 -20 45 12 45 15 0
32 -4 39 -8z m319 -13 c3 -6 2 -15 -2 -19 -12 -12 -38 5 -30 19 9 14 23 14 32
0z m-1361 -29 c3 -5 31 -10 61 -10 60 0 69 -12 25 -34 -34 -18 -146 -37 -166
-29 -25 9 -16 40 18 62 36 23 53 26 62 11z m165 -10 c0 -5 -4 -10 -10 -10 -5
0 -10 5 -10 10 0 6 5 10 10 10 6 0 10 -4 10 -10z m306 -15 c4 -8 -1 -26 -10
-40 -9 -13 -16 -30 -16 -38 0 -23 -29 -112 -43 -130 -7 -10 -38 -27 -70 -37
-60 -20 -127 -66 -127 -88 0 -20 -44 -10 -48 11 -5 26 16 47 75 73 51 23 103
78 119 126 11 35 -3 30 -52 -16 -26 -25 -55 -46 -65 -46 -9 0 -41 -11 -71 -25
-29 -14 -63 -25 -74 -25 -13 0 -24 -8 -27 -20 -9 -36 -67 -18 -67 21 0 9 16
41 36 70 26 40 50 61 90 82 46 23 55 25 60 12 10 -26 154 -12 154 15 0 4 8 10
18 14 9 3 32 17 51 31 39 29 59 32 67 10z m748 0 c-4 -8 -10 -15 -15 -15 -4 0
-6 7 -3 15 4 8 10 15 15 15 4 0 6 -7 3 -15z m-1561 -15 c-3 -12 -8 -19 -11
-16 -5 6 5 36 12 36 2 0 2 -9 -1 -20z m1237 10 c0 -5 -4 -10 -10 -10 -5 0 -10
5 -10 10 0 6 5 10 10 10 6 0 10 -4 10 -10z m353 -52 c-24 -41 -47 -51 -33 -14
5 14 17 38 27 53 15 22 19 24 21 10 2 -10 -5 -32 -15 -49z m-949 43 c10 -16
-22 -32 -56 -29 l-33 3 30 16 c35 20 52 22 59 10z m348 -31 c20 -39 17 -50 -7
-26 -9 9 -21 16 -26 16 -5 0 -9 12 -9 26 0 35 20 27 42 -16z m458 -5 c-7 -9
-15 -13 -18 -10 -3 2 1 11 8 20 7 9 15 13 18 10 3 -2 -1 -11 -8 -20z m74 -19
c-3 -9 -10 -16 -15 -16 -6 0 -5 9 1 21 13 24 24 20 14 -5z m-1509 -33 c-18
-42 -41 -71 -30 -38 18 53 28 75 36 75 5 0 2 -17 -6 -37z m395 27 c0 -5 -4
-10 -10 -10 -5 0 -10 5 -10 10 0 6 5 10 10 10 6 0 10 -4 10 -10z m-354 -32
c-13 -66 -80 -278 -88 -278 -4 0 -8 9 -8 19 0 23 66 245 81 273 15 28 22 21
15 -14z m252 16 c31 -6 28 -18 -10 -35 -25 -10 -43 -32 -73 -89 -36 -68 -43
-75 -70 -75 -30 0 -30 0 -28 55 2 64 24 123 54 143 19 14 62 14 127 1z m-355
-60 c-9 -27 -19 -42 -21 -32 -3 18 25 94 33 86 3 -2 -3 -27 -12 -54z m1867 40
c0 -8 -4 -12 -10 -9 -5 3 -10 10 -10 16 0 5 5 9 10 9 6 0 10 -7 10 -16z m-960
-18 c0 -3 -4 -8 -10 -11 -5 -3 -10 -1 -10 4 0 6 5 11 10 11 6 0 10 -2 10 -4z
m70 -35 c0 -5 -15 -31 -34 -58 -24 -35 -31 -54 -25 -64 18 -28 1 -39 -30 -20
-15 10 3 45 57 119 25 33 32 38 32 23z m286 -18 c-10 -10 -19 5 -10 18 6 11 8
11 12 0 2 -7 1 -15 -2 -18z m944 -37 c0 -38 -27 -53 -57 -31 -15 11 -15 15 -4
29 8 10 21 14 32 11 13 -4 19 -1 19 9 0 9 2 16 5 16 3 0 5 -15 5 -34z m-205 4
c3 -5 -1 -10 -10 -10 -9 0 -13 5 -10 10 3 6 8 10 10 10 2 0 7 -4 10 -10z
m-1995 -40 c-6 -12 -14 -19 -17 -17 -2 3 1 15 7 27 6 12 14 19 17 17 2 -3 -1
-15 -7 -27z m1345 0 c-4 -12 -9 -19 -12 -17 -3 3 -2 15 2 27 4 12 9 19 12 17
3 -3 2 -15 -2 -27z m455 -5 c-7 -9 -15 -13 -17 -11 -7 7 7 26 19 26 6 0 6 -6
-2 -15z m-957 -31 c-3 -38 -32 -114 -44 -114 -14 0 -11 34 6 56 8 10 15 36 15
57 0 27 4 37 13 34 6 -2 11 -17 10 -33z m667 -29 c-23 -47 -47 -62 -35 -22 11
36 48 92 53 79 2 -7 -6 -32 -18 -57z m-410 25 c0 -13 -9 -22 -25 -26 -35 -9
-42 1 -20 26 23 26 45 26 45 0z m-911 -72 c-7 -29 -21 -64 -31 -77 -12 -16
-15 -28 -8 -40 16 -31 89 -91 110 -91 25 0 25 -17 0 -98 -11 -35 -20 -79 -20
-99 0 -52 30 -40 53 22 23 63 34 75 63 75 27 0 28 -9 11 -85 -13 -55 -38 -75
-95 -75 -26 0 -43 10 -87 55 -51 52 -75 99 -75 148 0 30 -19 9 -31 -36 -6 -23
-24 -56 -39 -73 -28 -32 -37 -63 -61 -204 -17 -98 -25 -53 -9 54 17 119 49
251 66 272 14 18 15 17 10 -13 -3 -18 -9 -47 -13 -65 -12 -58 13 -21 32 47 11
41 24 69 36 76 15 8 17 14 9 29 -8 14 -4 39 15 97 14 45 20 79 15 81 -21 7 -8
33 23 46 17 7 34 12 36 10 2 -1 -3 -27 -10 -56z m791 52 c0 -5 -2 -10 -4 -10
-3 0 -8 5 -11 10 -3 6 -1 10 4 10 6 0 11 -4 11 -10z m170 -31 c0 -12 -7 -19
-20 -19 -22 0 -26 20 -8 38 15 15 28 6 28 -19z m955 -61 c-1 -70 -10 -108 -24
-108 -8 0 4 154 14 169 3 6 7 11 9 11 1 0 1 -33 1 -72z m-2128 35 c-30 -110
-38 -164 -27 -178 7 -8 9 -26 5 -44 -5 -24 -11 -30 -28 -28 -17 1 -23 -4 -25
-23 -5 -47 -12 -70 -22 -70 -15 0 -12 32 5 74 8 20 22 69 30 109 23 109 44
177 56 177 6 0 8 -8 6 -17z m1913 7 c0 -5 -5 -10 -11 -10 -5 0 -7 5 -4 10 3 6
8 10 11 10 2 0 4 -4 4 -10z m-1030 -10 c0 -5 -5 -10 -11 -10 -5 0 -7 5 -4 10
3 6 8 10 11 10 2 0 4 -4 4 -10z m110 -24 c0 -3 -4 -8 -10 -11 -5 -3 -10 -1
-10 4 0 6 5 11 10 11 6 0 10 -2 10 -4z m-876 -58 c-14 -26 -19 -29 -22 -15 -4
20 29 78 35 60 2 -6 -4 -27 -13 -45z m654 24 c2 -15 -2 -22 -13 -22 -8 0 -18
-7 -21 -15 -4 -8 -12 -15 -19 -15 -7 0 -18 -7 -25 -15 -7 -8 -28 -18 -48 -21
-20 -4 -43 -13 -50 -21 -44 -44 -86 28 -47 83 11 17 29 22 84 28 38 3 80 10
93 15 31 13 42 9 46 -17z m932 14 c0 -3 -4 -8 -10 -11 -5 -3 -10 -1 -10 4 0 6
5 11 10 11 6 0 10 -2 10 -4z m-750 -77 c-13 -40 -13 -42 10 -61 33 -26 62 -19
80 19 23 50 30 39 15 -25 -19 -79 -32 -111 -63 -151 -15 -20 -36 -53 -47 -76
-13 -27 -27 -40 -40 -40 -17 0 -20 6 -17 38 2 22 -1 37 -7 37 -6 0 -11 -6 -11
-14 0 -20 -30 -29 -36 -11 -3 8 -1 37 5 65 14 66 14 73 -4 66 -24 -9 -18 20 7
36 21 14 22 18 9 41 -18 34 -7 48 37 45 30 -2 37 1 40 17 8 36 22 68 29 61 3
-3 0 -24 -7 -47z m1317 -26 c-4 -27 -9 -76 -13 -110 -4 -35 -13 -71 -21 -80
-12 -16 -14 -7 -9 77 4 92 21 160 39 160 5 0 7 -21 4 -47z m-1477 -47 c0 -14
-4 -28 -10 -31 -11 -7 -13 -54 -4 -79 3 -9 12 -16 20 -16 15 0 17 -16 8 -72
-7 -40 -24 -52 -24 -17 0 25 -17 59 -30 59 -5 0 -12 -16 -16 -35 -4 -21 -12
-35 -21 -35 -20 0 -73 -41 -73 -57 0 -23 -21 -3 -37 35 -13 32 -13 36 1 44 9
5 34 45 56 88 23 46 47 81 59 85 10 3 26 17 35 30 21 32 36 32 36 1z m1030
-11 c-11 -10 -19 -11 -30 -4 -13 8 -12 11 4 24 26 19 47 2 26 -20z m-220 11
c0 -8 -7 -16 -15 -20 -15 -5 -21 14 -8 27 11 12 23 8 23 -7z m-290 -6 c0 -5
-4 -10 -10 -10 -5 0 -10 5 -10 10 0 6 5 10 10 10 6 0 10 -4 10 -10z m257 -72
c-3 -7 -5 -2 -5 12 0 14 2 19 5 13 2 -7 2 -19 0 -25z m-317 7 c0 -8 -9 -15
-19 -15 -24 0 -36 16 -19 23 24 10 38 7 38 -8z m-1309 -48 c-10 -9 -11 -8 -5
6 3 10 9 15 12 12 3 -3 0 -11 -7 -18z m1179 -8 c0 -5 -4 -9 -10 -9 -5 0 -10 7
-10 16 0 8 5 12 10 9 6 -3 10 -10 10 -16z m-645 -36 c-11 -47 -55 -61 -55 -18
0 18 5 25 20 25 11 0 20 5 20 10 0 6 5 10 11 10 7 0 9 -10 4 -27z m145 13 c0
-15 -18 -31 -26 -23 -7 7 7 37 17 37 5 0 9 -6 9 -14z m780 -4 c0 -32 -49 -364
-55 -370 -3 -3 -5 24 -6 59 0 35 -4 87 -9 114 -6 38 -5 53 6 64 7 8 21 45 31
83 16 64 33 89 33 50z m171 -65 c-13 -13 -15 1 -4 30 7 17 8 17 11 -1 2 -10
-1 -23 -7 -29z m-1665 -2 c4 -8 -1 -30 -9 -48 -8 -17 -18 -48 -22 -67 -14 -68
-27 -68 -21 0 8 100 35 160 52 115z m1166 -57 c-15 -15 -32 -1 -32 26 0 35 13
40 28 10 9 -17 10 -30 4 -36z m68 58 c0 -3 -4 -8 -10 -11 -5 -3 -10 -1 -10 4
0 6 5 11 10 11 6 0 10 -2 10 -4z m608 -42 c-10 -10 -28 6 -28 24 0 15 1 15 17
-1 9 -9 14 -19 11 -23z m-582 -31 c-12 -12 -29 15 -21 34 7 17 8 16 18 -5 5
-12 7 -25 3 -29z m164 31 c0 -9 -5 -14 -12 -12 -18 6 -21 28 -4 28 9 0 16 -7
16 -16z m-576 -27 l20 -28 -21 -87 c-22 -90 -38 -173 -48 -254 -8 -60 -27 -77
-48 -45 -14 22 -14 26 5 45 20 20 20 21 2 59 -18 37 -21 39 -46 29 -15 -5 -29
-8 -32 -6 -2 3 3 39 11 80 8 41 17 95 21 120 5 28 10 40 15 33 13 -21 20 -15
52 37 17 27 34 48 39 47 6 -2 19 -16 30 -30z m508 -33 c-4 -25 -30 -40 -44
-26 -5 5 -6 27 -2 50 l7 42 22 -22 c14 -13 20 -29 17 -44z m-752 -25 c-7 -16
-16 -29 -21 -29 -14 0 -10 28 8 63 14 26 18 28 21 14 2 -10 -2 -32 -8 -48z
m419 -16 c1 -48 -41 -84 -54 -44 -3 10 -14 26 -25 36 -11 10 -20 28 -20 41 0
20 4 22 34 17 22 -3 36 -1 41 8 11 17 23 -13 24 -58z m1021 16 c0 -10 -7 -19
-15 -19 -15 0 -21 31 -9 43 11 10 24 -3 24 -24z m-1639 -2 c-13 -13 -26 -3
-16 12 3 6 11 8 17 5 6 -4 6 -10 -1 -17z m876 -34 l56 -57 -8 -76 c-4 -41 -7
-94 -7 -117 1 -24 -3 -43 -8 -43 -5 0 -22 14 -39 31 -33 32 -43 73 -16 63 10
-4 15 0 15 12 0 29 -27 98 -39 102 -6 2 -11 18 -11 35 0 18 -5 39 -10 47 -7
11 -10 11 -10 2 0 -7 -4 -10 -10 -7 -11 7 -14 48 -3 58 15 16 37 4 90 -50z
m-143 33 c-3 -8 -1 -17 5 -21 6 -3 11 -14 11 -23 0 -14 -3 -13 -21 5 -21 21
-21 53 0 53 6 0 8 -6 5 -14z m-684 -31 c0 -8 -4 -15 -10 -15 -5 0 -10 7 -10
15 0 8 5 15 10 15 6 0 10 -7 10 -15z m1528 -40 c4 -27 -10 -45 -35 -45 -17 0
-17 52 -1 68 18 18 33 9 36 -23z m-1458 -47 c0 -12 -53 -78 -62 -78 -16 0 -8
56 14 102 l22 47 13 -31 c7 -17 13 -35 13 -40z m1377 -5 c5 -69 20 -113 39
-113 19 0 48 -60 36 -72 -5 -5 -8 -26 -5 -46 3 -24 -1 -44 -11 -57 -15 -19
-15 -18 -16 22 0 43 -16 67 -25 39 -16 -50 -18 -51 -28 -11 -5 22 -16 46 -24
53 -17 18 -17 34 4 70 10 18 14 36 9 48 -7 17 -9 17 -22 -8 -18 -35 -32 -36
-40 -2 -5 18 -1 31 15 48 11 12 21 32 21 45 0 12 5 32 11 43 17 31 32 7 36
-59z m-1509 39 c2 -12 10 -22 18 -22 17 0 20 -85 4 -95 -6 -3 -10 4 -10 17 0
34 -30 74 -41 57 -5 -8 -9 -24 -9 -36 0 -38 -15 -26 -29 22 -14 49 -10 65 12
47 16 -14 27 -6 27 21 0 25 24 16 28 -11z m192 14 c0 -29 -24 -116 -32 -116
-11 0 -10 19 4 79 11 47 28 70 28 37z m480 -1 c0 -8 -4 -15 -10 -15 -5 0 -10
7 -10 15 0 8 5 15 10 15 6 0 10 -7 10 -15z m-1070 -84 c0 -26 -3 -51 -7 -54
-12 -13 -33 15 -28 39 3 13 7 35 10 49 9 41 25 18 25 -34z m996 -10 c-26 -29
-17 -58 10 -31 11 11 44 3 44 -11 0 -14 -43 -39 -67 -39 -17 0 -23 6 -23 23
-1 20 -2 21 -14 5 -8 -12 -16 -14 -23 -7 -13 13 -30 -7 -35 -41 -1 -14 -10
-25 -18 -25 -18 0 -17 51 2 110 11 35 17 40 45 43 20 2 37 11 44 23 10 19 11
19 31 -6 19 -24 19 -27 4 -44z m-825 -4 c-6 -15 -18 -27 -27 -27 -13 0 -15 6
-10 32 3 17 12 38 18 46 11 12 13 12 21 -5 5 -11 4 -30 -2 -46z m1033 -3 c21
-21 20 -34 -3 -34 -22 0 -45 25 -36 40 9 14 21 13 39 -6z m-614 -43 c0 -12
-20 -25 -27 -18 -7 7 6 27 18 27 5 0 9 -4 9 -9z m520 -16 c0 -8 -4 -15 -10
-15 -5 0 -10 7 -10 15 0 8 5 15 10 15 6 0 10 -7 10 -15z m690 -41 c0 -14 -4
-23 -10 -19 -5 3 -10 15 -10 26 0 10 5 19 10 19 6 0 10 -12 10 -26z m-1802
-42 c3 -57 15 -67 30 -24 8 24 10 19 17 -43 5 -43 4 -80 -3 -97 -12 -32 -6
-41 19 -28 35 19 31 -11 -7 -45 -45 -41 -70 -51 -89 -35 -22 18 -18 28 15 45
25 13 30 21 30 53 0 27 -6 41 -21 50 -19 12 -21 20 -16 68 4 43 2 56 -9 61
-15 5 -19 35 -7 47 4 4 14 5 23 4 11 -2 16 -18 18 -56z m366 -13 c21 -73 14
-132 -20 -166 -27 -27 -50 -23 -35 6 6 10 13 63 17 119 4 56 10 102 13 102 4
0 15 -27 25 -61z m186 31 c0 -25 -18 -36 -26 -16 -8 21 3 49 16 41 5 -3 10
-15 10 -25z m360 -46 c-7 -24 -16 -44 -21 -44 -5 0 -6 6 -4 13 2 6 9 32 16 57
6 25 14 39 16 32 3 -8 0 -33 -7 -58z m548 54 c-2 -6 -10 -14 -16 -16 -7 -2
-10 2 -6 12 7 18 28 22 22 4z m-1631 -45 c-3 -10 -5 -2 -5 17 0 19 2 27 5 18
2 -10 2 -26 0 -35z m1783 7 c0 -5 -2 -10 -4 -10 -3 0 -8 5 -11 10 -3 6 -1 10
4 10 6 0 11 -4 11 -10z m-215 -20 c3 -5 2 -10 -4 -10 -5 0 -13 5 -16 10 -3 6
-2 10 4 10 5 0 13 -4 16 -10z m-899 -84 c-47 -46 -56 -48 -56 -10 0 35 11 54
30 54 10 0 28 9 41 19 24 19 24 19 27 0 2 -12 -13 -35 -42 -63z m107 66 c19
-21 13 -32 -15 -32 -13 0 -18 7 -18 25 0 30 11 32 33 7z m342 -22 c3 -5 1 -10
-4 -10 -6 0 -11 5 -11 10 0 6 2 10 4 10 3 0 8 -4 11 -10z m365 -24 c0 -13 -6
-29 -14 -35 -11 -10 -16 -8 -21 9 -7 21 9 50 26 50 5 0 9 -11 9 -24z m-1465 4
c3 -5 1 -10 -4 -10 -6 0 -11 5 -11 10 0 6 2 10 4 10 3 0 8 -4 11 -10z m966
-23 c-10 -27 -31 -45 -31 -27 0 13 31 62 37 57 2 -2 -1 -16 -6 -30z m729 -52
c0 -50 -4 -85 -10 -85 -11 0 -14 111 -4 148 11 39 14 24 14 -63z m100 -67 c12
-102 6 -339 -9 -396 -6 -23 -9 -18 -18 33 -6 33 -10 78 -9 100 1 22 3 123 5
225 2 201 12 212 31 38z m-1110 86 c0 -9 7 -22 17 -29 18 -14 12 -45 -10 -45
-14 0 -40 67 -31 82 9 14 24 9 24 -8z m1230 -244 c-7 -28 -16 -40 -29 -40 -28
0 -30 8 -9 49 28 56 36 141 14 156 -14 11 -14 14 -2 24 8 7 18 27 23 44 6 23
9 1 11 -81 1 -62 -2 -130 -8 -152z m-1094 164 c-6 -75 -26 -85 -26 -12 0 29 3
64 7 77 11 41 23 -1 19 -65z m1159 76 c-3 -5 -10 -10 -16 -10 -5 0 -9 5 -9 10
0 6 7 10 16 10 8 0 12 -4 9 -10z m-1965 -10 c0 -5 -7 -10 -16 -10 -8 0 -12 5
-9 10 3 6 10 10 16 10 5 0 9 -4 9 -10z m1717 -32 c-3 -8 -6 -5 -6 6 -1 11 2
17 5 13 3 -3 4 -12 1 -19z m-1117 -13 c0 -16 -6 -25 -15 -25 -15 0 -21 31 -8
43 13 14 23 6 23 -18z m573 -54 c-8 -10 -35 28 -28 39 5 8 11 4 19 -12 7 -12
11 -25 9 -27z m461 20 c9 -14 -12 -63 -24 -56 -11 7 -14 48 -3 58 9 10 21 9
27 -2z m-1114 -41 c-12 -23 -30 -27 -30 -7 0 17 10 27 27 27 11 0 11 -5 3 -20z
m1064 -70 c-1 -26 -7 -56 -13 -67 -8 -14 -10 0 -11 62 0 63 2 76 13 66 7 -7
11 -33 11 -61z m-970 51 c3 -5 -1 -26 -8 -47 l-15 -39 0 48 c-1 43 10 60 23
38z m136 -22 c0 -27 -2 -30 -15 -19 -24 20 -19 39 13 49 1 1 2 -13 2 -30z
m-309 -77 c-2 -62 -18 -121 -22 -82 -4 52 10 165 19 155 4 -3 5 -36 3 -73z
m34 -171 c-6 -60 -10 -74 -25 -78 -11 -3 -20 -16 -22 -32 -3 -22 -7 -25 -30
-23 -18 2 -31 -4 -42 -19 -8 -13 -18 -20 -22 -16 -4 3 -8 39 -11 79 -3 62 -2
70 9 54 7 -10 21 -28 30 -40 l17 -21 34 33 c30 29 35 42 40 95 4 34 10 96 14
137 l8 75 3 -85 c2 -47 0 -118 -3 -159z m315 217 c0 -19 -2 -20 -10 -8 -13 19
-13 30 0 30 6 0 10 -10 10 -22z m-420 -3 c10 -12 9 -16 -5 -21 -17 -7 -38 13
-29 28 8 12 20 10 34 -7z m1154 -36 c-3 -5 -10 -7 -15 -3 -5 3 -7 10 -3 15 3
5 10 7 15 3 5 -3 7 -10 3 -15z m-1469 -39 c-3 -5 -10 -10 -16 -10 -5 0 -9 5
-9 10 0 6 7 10 16 10 8 0 12 -4 9 -10z m542 -12 c-3 -8 -6 -5 -6 6 -1 11 2 17
5 13 3 -3 4 -12 1 -19z m1088 -55 c-8 -47 -8 -47 -16 -18 -11 37 -1 91 13 77
7 -7 8 -29 3 -59z m-368 -198 c0 -125 -2 -163 -7 -125 -10 72 -10 375 0 335 4
-16 8 -111 7 -210z m-1249 150 c-1 -73 17 -105 59 -105 27 0 30 -12 7 -31 -22
-18 -17 -205 6 -219 25 -16 35 -5 32 35 -2 28 0 36 10 31 7 -3 21 -9 30 -12
25 -9 31 -33 7 -27 -17 5 -19 0 -19 -45 0 -41 -3 -50 -17 -48 -14 1 -19 -8
-21 -39 -4 -45 -17 -65 -42 -65 -41 0 -53 53 -71 290 -10 146 -4 314 12 305 4
-3 8 -35 7 -70z m740 52 c2 -10 -3 -17 -12 -17 -10 0 -16 9 -16 21 0 24 23 21
28 -4z m-478 3 c0 -5 -4 -10 -10 -10 -5 0 -10 5 -10 10 0 6 5 10 10 10 6 0 10
-4 10 -10z m190 -28 c0 -15 4 -32 10 -38 6 -6 3 -14 -10 -22 -19 -12 -20 -9
-20 38 0 27 5 50 10 50 6 0 10 -13 10 -28z m894 -60 c4 -56 3 -81 -4 -77 -5 3
-10 42 -10 87 0 45 2 79 4 77 2 -2 6 -41 10 -87z m-177 -114 c-2 -35 -3 -9 -3
57 0 66 1 94 3 63 2 -32 2 -86 0 -120z m-447 143 c0 -11 -4 -23 -10 -26 -6 -4
-10 5 -10 19 0 14 5 26 10 26 6 0 10 -9 10 -19z m740 -15 c0 -7 7 -19 15 -26
19 -16 19 -44 0 -73 -21 -32 -9 -134 16 -142 16 -5 19 -17 19 -68 l0 -61 -25
34 c-14 19 -25 39 -25 45 0 12 -51 70 -67 76 -16 6 -22 211 -6 216 7 3 15 -10
19 -32 7 -42 24 -30 24 18 0 17 5 27 15 27 8 0 15 -6 15 -14z m-850 -6 c0 -5
-2 -10 -4 -10 -3 0 -8 5 -11 10 -3 6 -1 10 4 10 6 0 11 -4 11 -10z m230 -20
c0 -5 -5 -10 -11 -10 -5 0 -7 5 -4 10 3 6 8 10 11 10 2 0 4 -4 4 -10z m370
-20 c0 -5 -4 -10 -10 -10 -5 0 -10 5 -10 10 0 6 5 10 10 10 6 0 10 -4 10 -10z
m-734 -26 c-3 -9 -6 -18 -6 -20 0 -2 -9 -4 -20 -4 -25 0 -26 16 -2 29 25 15
35 13 28 -5z m398 1 c-4 -8 -8 -15 -10 -15 -2 0 -4 7 -4 15 0 8 4 15 10 15 5
0 7 -7 4 -15z m226 5 c0 -5 -5 -10 -11 -10 -5 0 -7 5 -4 10 3 6 8 10 11 10 2
0 4 -4 4 -10z m110 -20 c0 -5 -4 -10 -10 -10 -5 0 -10 5 -10 10 0 6 5 10 10
10 6 0 10 -4 10 -10z m-980 -86 c0 -54 -4 -83 -10 -79 -5 3 -10 42 -10 86 0
46 4 79 10 79 6 0 10 -35 10 -86z m438 23 c4 -46 18 -47 37 -4 l14 32 1 -41
c0 -47 -17 -67 -52 -62 -21 3 -23 9 -26 62 -2 44 0 57 10 54 7 -3 14 -21 16
-41z m632 -59 c0 -39 9 -120 21 -181 14 -72 18 -112 11 -119 -13 -13 -18 4
-37 140 -17 130 -20 246 -5 237 6 -3 10 -38 10 -77z m-1140 37 c0 -14 -4 -25
-10 -25 -11 0 -14 33 -3 43 11 11 13 8 13 -18z m889 -254 c19 -215 20 -254 6
-239 -11 11 -36 241 -41 373 -7 209 11 141 35 -134z m-929 213 c0 -37 -18 -45
-40 -19 -10 12 -9 20 4 40 21 32 36 24 36 -21z m419 13 c10 -20 10 -30 -3 -61
-14 -35 -40 -55 -53 -42 -3 3 2 15 12 26 12 13 19 37 20 61 0 45 6 49 24 16z
m596 -17 c3 -5 1 -10 -4 -10 -6 0 -11 5 -11 10 0 6 2 10 4 10 3 0 8 -4 11 -10z
m74 -87 c0 -42 -3 -52 -9 -38 -12 28 -12 95 0 95 6 0 10 -25 9 -57z m-479 43
c0 -3 -4 -8 -10 -11 -5 -3 -10 -1 -10 4 0 6 5 11 10 11 6 0 10 -2 10 -4z m-69
-111 c-8 -29 -7 -37 5 -42 18 -7 18 -44 -1 -69 -14 -18 -15 -17 -9 11 6 25 4
28 -7 17 -8 -7 -19 -30 -25 -50 -10 -30 -12 -32 -13 -13 -1 23 35 165 46 184
11 19 14 -4 4 -38z m-496 25 c3 -5 1 -10 -4 -10 -6 0 -11 5 -11 10 0 6 2 10 4
10 3 0 8 -4 11 -10z m140 -10 c3 -5 -1 -10 -9 -10 -9 0 -16 5 -16 10 0 6 4 10
9 10 6 0 13 -4 16 -10z m510 -86 c0 -19 -5 -29 -15 -29 -16 0 -25 28 -16 51
10 25 31 10 31 -22z m-55 19 c0 -5 -5 -15 -10 -23 -8 -12 -10 -11 -10 8 0 12
5 22 10 22 6 0 10 -3 10 -7z m237 -55 c-2 -13 -4 -3 -4 22 0 25 2 35 4 23 2
-13 2 -33 0 -45z m223 34 c0 -79 26 -236 46 -278 31 -65 32 -133 3 -160 -14
-12 -18 -25 -14 -41 4 -17 -1 -27 -20 -39 -14 -9 -25 -22 -25 -29 0 -19 -29
-40 -41 -28 -14 14 -39 168 -38 233 1 65 5 58 14 -24 5 -39 10 -55 17 -48 7 7
6 50 -3 135 -13 130 -9 168 15 148 21 -17 26 -3 26 71 0 39 4 68 10 68 6 0 10
-4 10 -8z m-519 -69 c-10 -17 -10 -17 -11 2 0 11 4 31 8 45 l7 25 3 -27 c2
-15 -1 -35 -7 -45z m258 30 c0 -25 -1 -25 -8 -8 -5 11 -7 23 -4 28 8 14 13 7
12 -20z m-799 -90 c0 -98 15 -157 37 -148 21 7 33 -11 33 -52 0 -47 16 -41 26
10 6 26 15 42 24 42 22 0 42 -81 36 -148 l-6 -59 28 7 c42 9 61 -12 68 -77 5
-41 3 -58 -5 -58 -6 0 -11 9 -11 20 0 26 -36 40 -67 26 -26 -13 -27 -20 -12
-81 16 -64 6 -77 -15 -19 -29 82 -32 88 -38 78 -3 -5 5 -43 18 -84 13 -41 24
-83 24 -93 0 -16 -2 -16 -30 -2 -26 14 -30 21 -30 59 0 45 -47 220 -101 381
-20 56 -32 112 -33 150 -1 65 18 125 40 125 11 0 14 -18 14 -77z m860 0 c0 -7
-4 -13 -10 -13 -5 0 -10 12 -10 28 0 21 2 24 10 12 5 -8 10 -21 10 -27z m-640
-47 c0 -37 34 -83 57 -78 23 5 33 -17 22 -47 -12 -30 9 -111 28 -111 18 0 16
-21 -3 -48 -13 -19 -14 -34 -5 -99 6 -43 12 -96 14 -118 1 -30 6 -39 17 -37 8
2 20 4 25 5 6 1 11 -16 13 -37 3 -35 1 -38 -12 -27 -22 18 -36 5 -36 -35 0
-50 -25 -39 -26 12 -1 21 -13 95 -27 164 -14 69 -28 152 -32 185 -4 33 -17 79
-28 103 -18 37 -19 46 -8 64 11 18 11 22 -3 30 -12 7 -16 24 -16 64 0 34 4 53
10 49 6 -3 10 -21 10 -39z m925 20 c11 -17 15 -42 13 -83 l-4 -58 -8 42 c-5
23 -17 50 -27 59 -19 17 -25 45 -12 57 12 12 22 7 38 -17z m-527 -10 c3 -12
-1 -17 -10 -14 -7 3 -15 13 -16 22 -3 12 1 17 10 14 7 -3 15 -13 16 -22z m339
-28 c-2 -13 -4 -5 -4 17 -1 22 1 32 4 23 2 -10 2 -28 0 -40z m-858 -26 c1 -13
-3 -20 -9 -17 -5 3 -10 23 -9 43 0 30 2 33 9 17 5 -11 9 -30 9 -43z m766 28
c3 -5 1 -10 -4 -10 -6 0 -11 5 -11 10 0 6 2 10 4 10 3 0 8 -4 11 -10z m-485
-32 c0 -23 -3 -29 -11 -21 -6 6 -8 20 -4 32 9 30 15 26 15 -11z m874 -39 c-3
-5 -10 -7 -15 -3 -5 3 -7 10 -3 15 3 5 10 7 15 3 5 -3 7 -10 3 -15z m-564 -33
c0 -16 -18 -31 -27 -22 -8 8 5 36 17 36 5 0 10 -6 10 -14z m-250 -27 c0 -5 -7
-9 -15 -9 -15 0 -20 12 -9 23 8 8 24 -1 24 -14z m295 -12 c-8 -18 -35 -31 -35
-16 0 6 5 20 11 31 12 23 33 11 24 -15z m205 -22 c0 -8 -4 -17 -10 -20 -6 -4
-10 5 -10 20 0 15 4 24 10 20 6 -3 10 -12 10 -20z m-280 5 c0 -5 -4 -10 -10
-10 -5 0 -10 5 -10 10 0 6 5 10 10 10 6 0 10 -4 10 -10z m-260 -79 c0 -23 -16
-36 -25 -21 -9 14 1 40 15 40 5 0 10 -9 10 -19z m554 -32 c3 -17 6 -48 6 -68
-1 -50 -17 -21 -26 47 -7 57 9 74 20 21z m-203 -61 c9 -33 8 -50 -1 -73 -7
-16 -17 -48 -22 -70 -5 -22 -16 -63 -25 -91 -9 -30 -12 -64 -9 -81 11 -48 -67
-163 -92 -138 -3 3 3 11 13 18 17 13 17 15 0 40 -16 25 -16 29 4 89 22 66 20
86 -5 50 -8 -12 -21 -22 -29 -22 -17 0 -9 29 34 122 17 37 31 72 31 78 0 21
62 120 76 120 7 0 18 -19 25 -42z m-319 7 c0 -5 -5 -11 -11 -13 -6 -2 -11 4
-11 13 0 9 5 15 11 13 6 -2 11 -8 11 -13z m-52 -30 c0 -25 -23 -35 -35 -15
-10 16 2 40 20 40 9 0 15 -9 15 -25z m111 -68 c-8 -8 -11 -7 -11 4 0 20 13 34
18 19 3 -7 -1 -17 -7 -23z m466 17 c7 -18 -3 -29 -37 -39 -20 -6 -23 -5 -12 6
6 7 12 21 12 31 0 22 28 24 37 2z m-117 -39 c0 -19 -2 -35 -4 -35 -2 0 -6 16
-8 35 -2 19 0 35 4 35 4 0 8 -16 8 -35z m-646 -20 c5 -19 4 -26 -2 -20 -5 6
-13 24 -16 40 -5 19 -4 26 2 20 5 -5 13 -23 16 -40z m796 -36 c0 -6 -4 -7 -10
-4 -5 3 -10 11 -10 16 0 6 5 7 10 4 6 -3 10 -11 10 -16z m-70 -14 c-7 -9 -15
-13 -18 -10 -3 2 1 11 8 20 7 9 15 13 18 10 3 -2 -1 -11 -8 -20z m-340 -141
c0 -8 -4 -14 -10 -14 -5 0 -10 9 -10 21 0 11 5 17 10 14 6 -3 10 -13 10 -21z
m-322 -92 c2 -14 -2 -22 -11 -22 -9 0 -17 -5 -19 -12 -5 -15 -28 -1 -28 17 0
18 29 47 44 42 6 -2 12 -13 14 -25z m288 -62 c19 0 18 -19 -2 -27 -24 -9 -38
12 -28 44 7 26 8 26 11 6 3 -13 11 -23 19 -23z m524 32 c0 -11 -80 -35 -88
-27 -4 4 2 13 12 21 21 15 76 19 76 6z m-760 -12 c-20 -13 -33 -13 -25 0 3 6
14 10 23 10 15 0 15 -2 2 -10z m610 -30 c0 -5 -5 -10 -11 -10 -5 0 -7 5 -4 10
3 6 8 10 11 10 2 0 4 -4 4 -10z m-390 -54 c0 -3 -4 -8 -10 -11 -5 -3 -10 -1
-10 4 0 6 5 11 10 11 6 0 10 -2 10 -4z m-40 -16 c0 -5 -4 -10 -10 -10 -5 0
-10 5 -10 10 0 6 5 10 10 10 6 0 10 -4 10 -10z m-320 -191 c0 -5 -7 -9 -15 -9
-8 0 -15 7 -15 15 0 9 6 12 15 9 8 -4 15 -10 15 -15z m404 -82 c-16 -24 -29
-36 -32 -29 -2 7 8 32 24 55 16 24 29 36 32 29 2 -7 -8 -32 -24 -55z m-340 21
c-20 -33 -57 -78 -66 -78 -5 0 -5 6 0 16 5 9 7 25 5 35 -4 15 0 19 20 19 14 0
29 5 32 10 9 15 18 12 9 -2z m90 -110 c-14 -48 -32 -86 -45 -93 -13 -9 -12 -5
19 72 18 44 39 60 26 21z m186 -6 c0 -13 -72 -123 -77 -118 -5 5 65 126 73
126 2 0 4 -4 4 -8z m50 -81 c-5 -11 -15 -23 -22 -27 -7 -5 -8 -2 -3 7 21 37
44 55 25 20z m490 -26 c25 -27 21 -47 -5 -25 -21 17 -38 50 -27 50 5 0 19 -11
32 -25z m180 -61 c29 -30 49 -58 46 -61 -7 -8 -68 49 -98 90 -33 46 -4 30 52
-29z m-970 36 c0 -5 -5 -10 -11 -10 -5 0 -7 5 -4 10 3 6 8 10 11 10 2 0 4 -4
4 -10z m146 -46 c-10 -14 -20 -23 -23 -21 -6 6 30 57 36 51 2 -2 -4 -15 -13
-30z m-220 -51 c-10 -10 -19 5 -10 18 6 11 8 11 12 0 2 -7 1 -15 -2 -18z
m-191 -3 c3 -5 -1 -10 -9 -10 -8 0 -18 5 -21 10 -3 6 1 10 9 10 8 0 18 -4 21
-10z m375 -4 c0 -3 -4 -8 -10 -11 -5 -3 -10 -1 -10 4 0 6 5 11 10 11 6 0 10
-2 10 -4z m684 -49 c40 -48 44 -71 6 -44 -24 16 -70 76 -70 90 0 18 25 0 64
-46z m-294 -27 c0 -5 -4 -10 -10 -10 -5 0 -10 5 -10 10 0 6 5 10 10 10 6 0 10
-4 10 -10z m-704 -78 c-33 -65 -73 -112 -97 -112 -28 0 -24 11 27 79 43 57 83
95 92 87 2 -2 -8 -26 -22 -54z m724 17 c0 -6 -4 -7 -10 -4 -5 3 -10 11 -10 16
0 6 5 7 10 4 6 -3 10 -11 10 -16z m150 -58 c12 -24 13 -31 1 -31 -12 0 -41 29
-41 41 0 17 29 9 40 -10z m-119 -13 c18 -23 25 -48 12 -48 -14 0 -43 34 -43
52 0 24 8 23 31 -4z m-891 -32 c0 -3 -4 -8 -10 -11 -5 -3 -10 -1 -10 4 0 6 5
11 10 11 6 0 10 -2 10 -4z m1150 -46 c0 -5 -5 -10 -11 -10 -5 0 -7 5 -4 10 3
6 8 10 11 10 2 0 4 -4 4 -10z m-18 -101 c53 -56 95 -107 91 -112 -3 -5 -39 24
-80 64 -93 92 -139 149 -121 149 7 0 57 -46 110 -101z m136 25 c23 -15 30 -34
12 -34 -17 0 -65 27 -80 45 -12 15 -10 16 16 9 16 -3 39 -13 52 -20z m-262
-122 c14 -45 35 -93 45 -106 23 -29 26 -86 4 -86 -9 0 -17 14 -20 38 -12 70
-25 110 -39 121 -17 15 -51 95 -60 141 l-6 35 24 -30 c14 -16 37 -67 52 -113z
m494 107 c0 -6 -4 -7 -10 -4 -5 3 -10 11 -10 16 0 6 5 7 10 4 6 -3 10 -11 10
-16z m-695 -94 c-12 -12 -25 -41 -30 -66 -4 -24 -10 -37 -12 -28 -4 18 20 120
39 167 l11 27 7 -40 c7 -34 4 -43 -15 -60z m-800 76 c18 -7 17 -9 -12 -24 -31
-16 -33 -16 -60 8 l-28 24 40 0 c22 0 49 -4 60 -8z m1535 -21 c0 -5 -4 -10
-10 -10 -5 0 -10 5 -10 10 0 6 5 10 10 10 6 0 10 -4 10 -10z m8 -89 c3 -8 -1
-12 -9 -9 -7 2 -15 10 -17 17 -3 8 1 12 9 9 7 -2 15 -10 17 -17z m-808 -17 c0
-8 -4 -12 -10 -9 -5 3 -10 10 -10 16 0 5 5 9 10 9 6 0 10 -7 10 -16z m555 -52
c-7 -7 -45 29 -45 41 0 6 11 0 25 -13 14 -13 23 -26 20 -28z m-1395 28 c0 -5
-4 -10 -10 -10 -5 0 -10 5 -10 10 0 6 5 10 10 10 6 0 10 -4 10 -10z m150 -9
c-5 -11 -15 -23 -22 -27 -7 -5 -8 -2 -3 7 21 37 44 55 25 20z m1528 -72 c12
-8 22 -17 22 -22 0 -11 -58 24 -78 48 -17 19 -16 19 8 4 14 -9 35 -22 48 -30z
m-788 10 c0 -11 -27 -12 -34 0 -3 4 -3 11 0 14 8 8 34 -3 34 -14z m-630 1 c0
-5 -5 -10 -11 -10 -5 0 -7 5 -4 10 3 6 8 10 11 10 2 0 4 -4 4 -10z m1095 -24
c28 -23 29 -24 7 -30 -28 -9 -62 10 -62 34 0 26 19 25 55 -4z m-1135 -42 c-18
-21 -24 -10 -9 18 8 14 14 18 17 10 2 -7 -2 -19 -8 -28z m401 -1 c-9 -16 -10
-14 -11 12 0 21 3 26 11 18 8 -8 8 -16 0 -30z m335 0 c-11 -11 -19 6 -11 24 8
17 8 17 12 0 3 -10 2 -21 -1 -24z m284 27 c0 -5 -4 -10 -10 -10 -5 0 -10 5
-10 10 0 6 5 10 10 10 6 0 10 -4 10 -10z m540 -45 c0 -8 -4 -15 -9 -15 -13 0
-22 16 -14 24 11 11 23 6 23 -9z m-338 -4 c13 -5 59 -42 101 -83 58 -54 76
-78 71 -91 -3 -9 -11 -17 -18 -17 -11 0 -85 61 -184 151 l-54 49 31 0 c16 0
40 -4 53 -9z m-490 -83 c-2 -38 -8 -68 -13 -68 -10 0 -13 133 -2 144 14 14 19
-11 15 -76z m117 -40 c-1 -68 1 -146 6 -175 4 -29 4 -69 0 -90 -6 -33 -8 -35
-18 -18 -6 12 -11 90 -11 200 -1 161 3 205 20 205 3 0 4 -55 3 -122z m144 90
c16 -22 17 -29 7 -49 -12 -22 -13 -21 -31 27 -11 27 -19 51 -19 52 0 11 27 -8
43 -30z m-213 -8 c0 -10 -5 -22 -10 -25 -13 -8 -24 20 -16 41 8 20 26 9 26
-16z m-340 -16 c0 -21 -4 -33 -10 -29 -5 3 -10 19 -10 36 0 16 5 29 10 29 6 0
10 -16 10 -36z m710 -70 c0 -13 -4 -24 -9 -24 -10 0 -21 47 -13 54 10 11 22
-6 22 -30z m-710 6 c0 -5 -4 -10 -10 -10 -5 0 -10 5 -10 10 0 6 5 10 10 10 6
0 10 -4 10 -10z m538 -182 c-2 -120 0 -158 11 -178 11 -18 14 -51 12 -115 -5
-174 -32 -123 -50 95 -7 90 -11 106 -30 118 -19 13 -21 24 -21 101 0 86 0 86
33 108 17 12 36 22 40 22 4 1 6 -68 5 -151z m686 101 c10 -9 1 -39 -12 -39 -4
0 -23 14 -42 30 l-35 30 40 -6 c22 -4 44 -10 49 -15z m-587 -18 c8 -18 8 -31
-2 -55 -7 -17 -16 -52 -19 -78 -7 -46 -26 -63 -41 -37 -7 10 13 176 22 192 8
13 27 2 40 -22z m127 -20 c24 -21 80 -60 123 -87 97 -60 185 -125 178 -132 -2
-3 -46 22 -97 55 -51 33 -120 75 -153 93 -96 53 -147 92 -133 102 23 14 36 9
82 -31z m-34 -168 c0 -7 -9 -13 -20 -13 -16 0 -20 7 -20 38 l0 37 20 -25 c11
-14 20 -31 20 -37z m-508 -25 c-9 -9 -12 -4 -11 23 0 32 1 33 11 11 8 -17 8
-26 0 -34z m411 -81 c9 -30 17 -69 17 -88 0 -48 10 -79 25 -79 18 0 23 -18 31
-107 11 -125 23 -129 24 -8 0 109 11 154 29 127 8 -13 22 -512 15 -521 -10
-11 -98 206 -115 280 -24 113 -27 120 -58 146 l-26 21 23 31 c26 36 27 59 7
129 -15 49 -12 122 4 122 3 0 14 -24 24 -53z m260 -6 c112 -53 345 -190 389
-229 14 -11 15 -18 7 -29 -17 -20 -33 -16 -57 16 -11 16 -45 40 -74 52 -29 13
-71 34 -93 46 -81 45 -211 111 -232 117 -13 4 -23 3 -23 -2 0 -10 44 -88 100
-176 30 -49 33 -76 7 -76 -14 0 -47 65 -47 93 0 9 -4 19 -10 22 -5 3 -10 13
-10 21 0 9 -15 34 -34 57 -18 23 -36 56 -39 72 -3 17 -8 40 -12 53 -4 12 -5
22 -2 22 3 0 61 -27 130 -59z m223 22 c-8 -8 -36 5 -36 17 0 7 6 7 21 0 11 -7
18 -14 15 -17z m-416 -95 c0 -51 -3 -68 -10 -58 -13 20 -13 130 0 130 6 0 10
-31 10 -72z m494 -211 c17 -13 44 -28 59 -35 15 -7 25 -17 22 -22 -11 -18 6
-49 36 -67 17 -10 39 -33 50 -50 11 -18 45 -47 75 -65 53 -32 67 -48 42 -48
-20 0 -141 65 -209 110 -70 49 -176 100 -204 100 -52 1 -65 11 -65 52 0 34 3
39 18 33 128 -49 205 -75 210 -71 8 8 -29 46 -45 46 -21 0 -153 69 -153 80 0
13 127 -35 164 -63z m-347 11 c29 -27 29 -33 -2 -70 -33 -39 -35 -98 -4 -98
30 0 22 -44 -8 -48 -23 -3 -23 -2 -23 117 0 67 3 121 7 121 4 0 17 -10 30 -22z
m-396 -231 c-7 -53 -19 -13 -13 43 6 51 7 52 12 20 3 -19 4 -48 1 -63z m589
72 c0 -5 -4 -9 -10 -9 -5 0 -10 7 -10 16 0 8 5 12 10 9 6 -3 10 -10 10 -16z
m-515 -9 c3 -5 1 -10 -4 -10 -6 0 -11 5 -11 10 0 6 2 10 4 10 3 0 8 -4 11 -10z
m475 -75 c7 -9 11 -16 9 -18 -50 -29 -49 -29 -49 3 0 33 19 40 40 15z m309
-38 c29 -17 85 -51 125 -74 39 -24 63 -43 54 -43 -9 0 -22 -8 -27 -17 -9 -17
-15 -16 -68 14 -47 26 -58 36 -56 55 2 18 -7 30 -42 51 -83 53 -70 65 14 14z
m-807 -23 c2 -19 0 -37 -4 -40 -4 -3 -8 13 -8 35 0 51 6 53 12 5z m47 -66 c1
-10 -3 -18 -9 -18 -5 0 -10 17 -9 38 0 30 2 33 9 17 5 -11 9 -28 9 -37z m431
-48 c0 -39 -3 -51 -10 -40 -5 8 -10 40 -10 70 0 39 3 51 10 40 5 -8 10 -40 10
-70z m-400 49 c0 -5 -4 -9 -10 -9 -5 0 -10 7 -10 16 0 8 5 12 10 9 6 -3 10
-10 10 -16z m629 -18 c44 -23 56 -36 65 -74 5 -22 24 -36 115 -81 154 -78 386
-235 370 -250 -2 -2 -51 24 -109 58 -164 98 -261 146 -293 146 -44 0 -29 -21
41 -55 40 -20 62 -36 62 -47 0 -23 -4 -22 -54 3 -22 12 -48 25 -56 29 -17 8
-100 129 -100 146 0 6 -9 19 -20 29 -14 13 -17 22 -10 29 13 13 13 26 -2 26
-14 0 -58 40 -58 52 0 12 6 10 49 -11z m371 -113 c0 -10 -36 7 -45 22 -4 6 5
5 19 -2 14 -6 26 -15 26 -20z m-460 -40 c0 -5 -4 -8 -10 -8 -5 0 -10 10 -10
23 0 18 2 19 10 7 5 -8 10 -18 10 -22z m-362 -36 c23 -23 70 -238 55 -253 -8
-8 -14 -6 -21 8 -10 18 -72 239 -72 256 0 13 19 8 38 -11z m414 -76 c18 -3 44
-4 58 -3 24 2 25 -1 28 -60 3 -69 -13 -87 -23 -25 -4 20 -8 43 -10 50 -7 19
-25 14 -25 -7 0 -30 -21 -37 -40 -14 -8 11 -26 25 -38 32 -16 8 -22 21 -22 43
l0 32 20 -22 c11 -11 35 -23 52 -26z m403 -164 c55 -28 144 -92 155 -112 6
-11 45 -46 88 -78 119 -91 200 -187 178 -210 -4 -3 -19 6 -34 20 -50 47 -209
156 -310 213 -98 54 -141 89 -129 102 4 3 -3 21 -14 39 -34 55 -10 65 66 26z
m-165 -33 c0 -11 -4 -17 -10 -14 -5 3 -10 13 -10 21 0 8 5 14 10 14 6 0 10 -9
10 -21z m21 -205 c11 -60 29 -144 40 -188 11 -43 17 -81 14 -85 -8 -7 -35 28
-35 45 0 7 -16 40 -35 74 -19 34 -35 73 -35 86 0 14 -7 41 -15 61 -8 19 -15
43 -15 53 0 10 7 20 15 24 8 3 15 16 15 29 0 30 11 42 22 23 4 -7 17 -63 29
-122z m54 127 c3 -5 1 -12 -5 -16 -5 -3 -10 1 -10 9 0 18 6 21 15 7z m95 -113
c11 -7 20 -18 20 -24 0 -6 9 -33 21 -58 26 -60 19 -110 -14 -100 -34 10 -38
18 -25 51 10 26 9 38 -7 75 -10 24 -25 50 -32 59 -7 8 -13 29 -12 45 l1 29 14
-32 c8 -18 23 -38 34 -45z m70 -32 c0 -11 -19 -15 -25 -6 -3 5 1 10 9 10 9 0
16 -2 16 -4z m114 -73 c115 -76 232 -203 187 -203 -5 0 -49 35 -98 78 -48 42
-112 97 -140 120 -52 43 -69 70 -36 58 9 -4 48 -28 87 -53z m137 -51 c-13 -4
-41 16 -41 29 0 5 12 2 26 -8 15 -9 21 -19 15 -21z m-201 -31 c0 -12 -20 -25
-27 -18 -7 7 6 27 18 27 5 0 9 -4 9 -9z m120 -129 c0 -21 -25 2 -62 57 l-31
46 47 -45 c25 -24 46 -51 46 -58z m-63 -7 c29 -43 50 -81 47 -84 -8 -9 -69 66
-100 123 -41 75 -7 50 53 -39z m-66 3 c17 -33 28 -62 25 -65 -7 -8 -76 111
-76 133 0 17 25 -16 51 -68z"/>
<path d="M4325 12580 c-3 -5 1 -10 9 -10 9 0 16 5 16 10 0 6 -4 10 -9 10 -6 0
-13 -4 -16 -10z"/>
<path d="M4179 12554 c-11 -14 -10 -16 9 -12 13 1 23 7 23 13 1 17 -17 16 -32
-1z"/>
<path d="M4255 12560 c4 -6 11 -8 16 -5 14 9 11 15 -7 15 -8 0 -12 -5 -9 -10z"/>
<path d="M4095 12540 c-8 -12 20 -24 35 -15 5 3 10 10 10 16 0 12 -37 12 -45
-1z"/>
<path d="M4010 12514 c0 -10 7 -14 22 -12 32 5 35 28 4 28 -17 0 -26 -5 -26
-16z"/>
<path d="M3965 12511 c-6 -11 9 -23 19 -14 9 9 7 23 -3 23 -6 0 -12 -4 -16 -9z"/>
<path d="M3905 12500 c-8 -13 4 -32 16 -25 12 8 12 35 0 35 -6 0 -13 -4 -16
-10z"/>
<path d="M3836 12483 c-11 -11 -6 -23 9 -23 8 0 15 4 15 9 0 13 -16 22 -24 14z"/>
<path d="M3741 12460 c-24 -11 -51 -20 -61 -20 -10 0 -31 -7 -46 -15 -16 -8
-39 -15 -51 -15 -12 0 -25 -4 -28 -10 -3 -5 -15 -10 -26 -10 -11 0 -43 -12
-71 -26 -28 -14 -83 -36 -122 -49 -149 -49 -504 -232 -781 -403 -154 -95 -477
-314 -540 -367 -33 -28 -98 -81 -145 -119 -175 -143 -376 -330 -552 -515 -101
-106 -328 -378 -362 -435 -10 -17 -47 -74 -81 -126 -180 -277 -354 -624 -447
-889 -136 -389 -170 -493 -188 -581 -11 -52 -27 -120 -35 -150 -21 -76 -30
-186 -17 -194 13 -8 15 -3 51 190 17 89 38 181 46 205 9 24 25 79 36 122 60
235 286 767 439 1032 348 605 891 1173 1563 1635 156 107 226 149 529 316 189
105 490 236 505 220 3 -3 -113 -64 -258 -137 -145 -72 -316 -161 -379 -197
-264 -149 -646 -424 -915 -658 -146 -126 -461 -434 -555 -543 -30 -34 -86 -97
-123 -139 -112 -126 -336 -481 -462 -732 -98 -196 -248 -575 -317 -805 -43
-142 -114 -481 -124 -596 -6 -59 -5 -71 7 -67 8 2 17 20 21 39 4 19 22 117 42
219 56 297 160 629 296 950 218 513 524 956 942 1365 320 314 622 563 903 745
228 148 275 175 525 302 242 123 380 185 536 237 122 42 195 78 202 100 7 20
-56 9 -161 -28 -48 -17 -100 -31 -115 -30 -22 0 -14 6 38 31 36 16 82 36 103
44 21 7 44 20 52 28 8 8 23 12 34 9 10 -3 22 0 25 6 4 6 18 11 31 11 13 0 27
5 30 10 3 6 17 10 31 10 14 0 27 7 31 16 11 28 -11 34 -56 14z"/>
<path d="M3865 12410 c-28 -4 -62 -13 -75 -20 -14 -7 -31 -16 -39 -20 -8 -3
-17 -12 -19 -18 -5 -16 76 -5 98 13 8 7 33 15 54 18 43 7 88 38 51 36 -11 -1
-43 -5 -70 -9z"/>
<path d="M9690 9795 c0 -14 21 -45 31 -45 18 0 5 45 -13 48 -10 2 -18 1 -18
-3z"/>
<path d="M10120 8794 c0 -11 9 -54 19 -95 11 -41 24 -100 31 -131 17 -88 34
-86 26 4 -9 95 -38 204 -59 225 -16 16 -17 16 -17 -3z"/>
<path d="M164 8476 c-8 -22 3 -33 18 -18 9 9 9 15 0 24 -9 9 -13 7 -18 -6z"/>
<path d="M152 8389 c2 -6 8 -10 13 -10 5 0 11 4 13 10 2 6 -4 11 -13 11 -9 0
-15 -5 -13 -11z"/>
<path d="M211 8336 c-12 -14 -5 -26 16 -26 15 0 18 26 4 34 -5 3 -14 0 -20 -8z"/>
<path d="M144 8325 c-7 -17 4 -37 17 -30 12 8 12 45 -1 45 -6 0 -13 -7 -16
-15z"/>
<path d="M207 8263 c-13 -13 -7 -53 8 -53 10 0 15 10 15 30 0 29 -9 38 -23 23z"/>
<path d="M132 8238 c2 -13 8 -23 13 -23 6 0 11 10 13 23 2 15 -2 22 -13 22
-11 0 -15 -7 -13 -22z"/>
<path d="M124 8167 c-7 -20 -2 -47 11 -50 14 -3 19 43 6 56 -7 7 -12 6 -17 -6z"/>
<path d="M190 8159 c-12 -22 -7 -49 9 -49 15 0 32 36 25 54 -8 22 -21 20 -34
-5z"/>
<path d="M189 8068 c-1 -2 -7 -41 -13 -87 -10 -66 -10 -84 0 -88 7 -3 18 -2
24 2 13 8 13 162 0 170 -5 3 -11 5 -11 3z"/>
<path d="M168 7825 c-8 -18 -8 -29 -1 -36 16 -16 33 -2 33 26 0 34 -18 40 -32
10z"/>
<path d="M169 7723 c-6 -15 -8 -42 -4 -60 11 -59 35 -34 35 37 0 48 -16 61
-31 23z"/>
<path d="M172 7569 c1 -13 8 -23 13 -21 15 3 12 35 -3 40 -9 3 -13 -3 -10 -19z"/>
<path d="M180 7476 c0 -77 45 -249 63 -243 20 6 19 43 -1 89 -11 24 -23 76
-27 116 -5 52 -11 72 -21 72 -9 0 -14 -12 -14 -34z"/>
<path d="M9452 5228 c-14 -14 -16 -38 -4 -38 10 0 42 33 42 43 0 11 -25 8 -38
-5z"/>
<path d="M9403 5155 c-13 -9 -23 -21 -23 -26 0 -11 -51 -84 -96 -137 -42 -50
-67 -99 -54 -107 15 -9 34 9 76 73 21 32 41 59 45 62 5 3 15 23 24 44 9 22 26
46 37 56 11 9 19 24 17 33 -4 16 -6 16 -26 2z"/>
<path d="M3686 8588 c-8 -13 -18 -36 -22 -51 -17 -69 103 -109 137 -46 12 24
-9 68 -47 98 -34 27 -50 26 -68 -1z"/>
<path d="M2343 7513 c-18 -6 -16 -33 1 -33 15 0 30 27 18 33 -4 3 -13 2 -19 0z"/>
<path d="M1852 7108 c-15 -15 -16 -58 -2 -58 6 0 10 6 10 14 0 7 7 19 15 26 8
7 15 16 15 21 0 13 -24 11 -38 -3z"/>
<path d="M1925 6090 c-8 -16 -15 -38 -15 -50 0 -12 -11 -32 -25 -45 -31 -28
-46 -95 -22 -95 36 0 48 15 71 89 37 118 39 131 21 131 -8 0 -21 -13 -30 -30z"/>
<path d="M2451 5024 c0 -11 3 -14 6 -6 3 7 2 16 -1 19 -3 4 -6 -2 -5 -13z"/>
<path d="M1330 4220 c0 -5 5 -10 10 -10 6 0 10 5 10 10 0 6 -4 10 -10 10 -5 0
-10 -4 -10 -10z"/>
<path d="M1060 1769 c0 -5 5 -7 10 -4 6 3 10 8 10 11 0 2 -4 4 -10 4 -5 0 -10
-5 -10 -11z"/>
</g>
</svg>
