<?xml version="1.0" standalone="no"?>
<!DOCTYPE svg PUBLIC "-//W3C//DTD SVG 20010904//EN"
 "http://www.w3.org/TR/2001/REC-SVG-20010904/DTD/svg10.dtd">
<svg version="1.0" xmlns="http://www.w3.org/2000/svg"
 width="1280.000000pt" height="800.000000pt" viewBox="0 0 1280.000000 800.000000"
 preserveAspectRatio="xMidYMid meet">
<metadata>
Created by potrace 1.15, written by Peter Selinger 2001-2017
</metadata>
<g transform="translate(0.000000,800.000000) scale(0.100000,-0.100000)"
fill="#000000" stroke="none">
<path d="M9954 7380 c-33 -4 -66 -10 -73 -14 -7 -5 -40 -12 -74 -16 -34 -5
-107 -16 -162 -24 -258 -41 -307 -48 -400 -56 -91 -9 -130 -14 -295 -39 -197
-31 -276 -45 -361 -67 -52 -13 -124 -27 -160 -30 -111 -11 -264 -64 -331 -116
-21 -16 -72 -47 -113 -69 -87 -47 -156 -121 -226 -243 -24 -42 -67 -109 -96
-149 -29 -40 -79 -110 -111 -157 -32 -47 -80 -107 -107 -135 -26 -27 -59 -65
-73 -83 -40 -53 -183 -162 -227 -174 -22 -6 -69 -22 -105 -37 -61 -24 -74 -26
-215 -23 -103 1 -177 -3 -235 -14 -60 -11 -109 -14 -167 -9 -77 6 -83 9 -132
50 -69 59 -102 81 -169 117 -31 17 -70 40 -87 52 -16 12 -56 34 -87 49 -32 15
-91 47 -132 72 -41 25 -79 45 -84 45 -5 0 -22 11 -38 25 -16 14 -36 25 -44 25
-9 0 -32 11 -52 25 -20 14 -39 25 -41 25 -3 0 -56 30 -118 66 -110 64 -234
114 -283 114 -13 0 -43 7 -66 15 -23 8 -77 15 -119 15 -42 0 -121 7 -176 15
-55 8 -174 15 -265 15 -91 0 -221 6 -290 14 -69 8 -168 17 -220 21 -52 3 -152
10 -222 15 -70 4 -131 11 -137 14 -6 4 -68 1 -138 -5 -70 -7 -175 -13 -233
-13 -256 -4 -549 -44 -930 -127 -226 -50 -261 -59 -299 -79 -23 -11 -85 -32
-139 -46 -156 -42 -312 -103 -369 -146 -29 -21 -53 -44 -53 -50 0 -21 35 -37
80 -38 25 0 51 -4 59 -9 32 -20 0 -38 -120 -65 -155 -35 -335 -85 -372 -103
-46 -23 -37 -38 45 -72 31 -12 36 -26 13 -35 -8 -3 -15 -18 -15 -34 0 -33 47
-69 126 -96 69 -23 257 -22 349 3 141 39 173 49 187 57 21 14 131 25 306 30
138 5 167 3 187 -10 17 -12 49 -16 110 -16 82 0 125 -10 125 -29 0 -9 -95 -81
-106 -81 -3 0 -23 -12 -43 -27 -43 -34 -58 -43 -136 -84 -33 -17 -74 -42 -92
-55 -17 -13 -35 -24 -38 -24 -3 0 -21 -11 -39 -25 -18 -14 -36 -25 -40 -25 -4
0 -31 -18 -61 -40 -30 -22 -57 -40 -61 -40 -7 0 -43 -44 -61 -74 -19 -32 -16
-66 5 -66 36 1 219 29 252 39 19 6 49 11 66 11 17 0 66 9 110 21 75 20 276 30
292 15 11 -12 -17 -54 -45 -66 -45 -20 -83 -77 -83 -124 0 -23 4 -46 8 -53 11
-18 274 -29 312 -13 28 12 33 11 51 -9 23 -25 37 -26 63 -6 11 8 34 15 51 15
27 0 32 -5 47 -48 17 -48 19 -49 74 -61 32 -8 75 -10 101 -6 28 4 49 2 58 -5
9 -7 15 -8 20 0 3 5 26 10 49 10 39 0 46 -4 68 -37 37 -55 88 -68 263 -65
l140 2 18 -38 c9 -20 28 -50 41 -66 l25 -29 108 12 c209 23 216 24 262 61 24
19 56 47 72 62 27 28 49 36 49 20 0 -5 -5 -33 -11 -63 -8 -44 -8 -61 5 -91 25
-58 64 -79 160 -85 94 -6 115 1 184 67 49 45 62 48 102 20 15 -11 57 -27 94
-35 63 -15 170 -69 195 -99 7 -8 41 -33 75 -56 80 -51 101 -48 149 23 29 45
35 64 42 142 5 50 7 109 7 132 -4 79 41 65 52 -17 9 -68 45 -110 94 -110 21 0
57 -9 81 -20 46 -21 116 -27 126 -10 9 14 53 -11 90 -50 17 -17 57 -44 90 -59
43 -20 74 -44 110 -86 28 -32 71 -79 96 -104 25 -25 55 -59 65 -76 l19 -29 6
54 c7 53 -7 137 -56 355 -7 33 -13 101 -14 150 0 50 -3 109 -7 132 -11 76 20
112 49 56 33 -66 93 -173 127 -228 20 -33 63 -109 95 -170 32 -60 73 -127 92
-148 19 -21 39 -49 45 -62 6 -13 28 -35 48 -49 21 -14 47 -41 60 -60 24 -40
45 -46 55 -16 12 37 53 16 96 -50 l16 -25 15 30 c19 38 13 157 -10 202 -13 26
-14 34 -3 47 26 31 54 18 127 -56 39 -40 99 -98 134 -129 l64 -55 -39 -70
c-21 -38 -82 -135 -136 -215 -54 -81 -119 -189 -144 -240 -26 -51 -73 -132
-105 -179 -32 -47 -77 -124 -100 -170 -24 -47 -59 -110 -79 -140 -20 -30 -43
-71 -51 -90 -8 -19 -49 -105 -91 -192 -102 -205 -147 -330 -243 -668 -14 -52
-28 -117 -40 -186 -6 -35 8 -54 40 -54 24 0 87 70 120 134 53 104 116 221 174
321 109 190 114 199 136 245 19 39 23 42 23 19 1 -14 -6 -50 -14 -80 -9 -30
-20 -70 -25 -89 -17 -59 -61 -242 -72 -295 -5 -27 -17 -84 -26 -125 -8 -41
-15 -80 -14 -87 2 -7 -4 -29 -13 -49 -49 -119 36 -155 99 -41 16 28 43 72 59
96 36 53 81 140 101 198 8 22 25 58 39 79 13 22 39 76 57 122 18 45 36 82 39
82 11 0 -8 -116 -34 -215 -33 -121 -54 -323 -56 -532 -1 -126 2 -177 11 -188
17 -21 73 -19 92 3 22 26 84 167 109 250 12 40 26 75 32 79 10 6 1 -116 -13
-151 -7 -20 -12 -54 -26 -176 -3 -30 -9 -75 -14 -100 -5 -24 -6 -48 -4 -52 3
-4 -3 -32 -11 -63 -15 -52 -15 -58 0 -81 9 -14 19 -24 23 -22 4 2 19 10 34 17
17 9 37 36 57 80 17 36 44 89 59 116 36 67 62 128 62 148 0 9 18 56 39 104 22
49 47 114 56 145 16 57 90 234 105 253 4 6 11 26 15 45 4 19 15 51 25 70 l18
35 6 -55 c3 -30 8 -88 11 -128 4 -40 13 -92 22 -115 11 -30 15 -88 17 -207 3
-216 79 -894 106 -942 6 -10 10 -47 10 -82 0 -58 3 -67 26 -85 l26 -21 28 23
c23 18 30 35 40 92 7 39 21 104 31 145 11 42 22 128 25 195 3 65 8 123 11 129
3 5 9 79 14 165 8 167 17 241 29 241 5 0 13 -33 20 -72 6 -40 24 -118 41 -172
16 -54 29 -107 29 -118 0 -27 35 -150 53 -184 8 -16 23 -56 32 -88 17 -60 52
-106 78 -106 36 0 38 21 33 327 -8 396 -21 624 -41 698 -16 59 -13 195 4 195
9 0 45 -79 62 -135 12 -40 58 -147 83 -195 8 -14 17 -41 20 -60 4 -19 13 -48
21 -65 30 -69 104 -252 111 -274 3 -14 22 -56 40 -95 19 -39 34 -77 34 -85 0
-8 14 -44 31 -80 17 -36 34 -75 39 -86 61 -148 167 -357 212 -418 13 -18 46
-68 72 -112 122 -201 174 -271 216 -290 22 -10 43 -15 47 -11 34 33 -39 288
-115 407 -46 72 -74 128 -88 179 -3 14 -21 57 -39 95 -37 79 -56 140 -49 159
3 7 -2 19 -11 26 -10 8 -15 29 -15 61 0 27 -4 57 -9 67 -5 9 -14 44 -21 77 -6
33 -18 74 -25 90 -8 17 -17 44 -21 60 -3 17 -12 39 -19 50 -7 11 -16 35 -19
53 -6 26 -4 32 8 32 11 0 38 -46 81 -132 36 -73 76 -146 90 -162 14 -16 25
-34 25 -41 0 -6 12 -36 26 -66 76 -155 97 -195 108 -209 7 -8 17 -27 24 -42 6
-15 27 -45 47 -66 19 -22 35 -42 35 -46 0 -5 45 -75 90 -140 8 -12 47 -53 86
-92 39 -39 75 -80 78 -92 7 -20 63 -62 84 -62 20 0 26 88 9 128 -9 20 -18 56
-22 80 -5 42 -105 361 -147 472 -24 61 -98 221 -189 405 -32 66 -59 125 -59
131 0 6 -16 41 -35 77 -19 36 -35 69 -35 73 0 18 57 -49 116 -136 153 -224
262 -373 323 -439 12 -14 32 -43 42 -64 19 -36 52 -59 75 -50 6 2 15 16 21 31
7 21 5 41 -13 92 -13 36 -27 83 -33 105 -14 58 -53 156 -75 188 -34 50 -11 38
30 -15 52 -69 215 -232 264 -264 22 -15 42 -35 45 -45 4 -11 16 -24 28 -30 28
-16 35 -22 119 -108 40 -40 87 -88 104 -105 87 -89 161 -129 191 -104 17 14
16 78 -2 102 -8 11 -15 26 -15 34 0 19 -32 60 -116 151 -40 42 -97 114 -127
161 -31 47 -83 112 -117 145 -34 33 -82 88 -106 121 -24 34 -55 69 -69 78 -13
9 -36 37 -51 63 -15 27 -35 57 -44 68 -27 32 -215 316 -238 360 -11 22 -37 75
-56 119 l-36 78 34 -28 c19 -16 46 -37 60 -47 14 -10 49 -53 78 -97 29 -43 89
-116 133 -162 44 -46 121 -128 170 -182 81 -89 272 -282 285 -288 3 -2 20 -22
38 -45 26 -33 40 -43 62 -43 25 0 30 5 35 33 5 27 -2 51 -35 118 -76 156 -113
224 -131 244 -10 11 -39 58 -65 105 -25 47 -59 101 -74 120 -22 29 -126 203
-138 232 -12 28 31 -9 149 -128 109 -111 160 -153 274 -229 77 -51 154 -105
170 -119 17 -14 35 -26 41 -26 6 0 19 -9 29 -20 19 -20 118 -70 140 -70 24 0
39 29 28 53 -20 42 -164 205 -343 387 -52 53 -109 112 -126 132 -17 19 -39 40
-48 45 -31 17 -416 405 -416 419 0 8 -30 46 -67 85 -38 40 -63 70 -58 68 6 -3
21 -10 35 -16 14 -6 45 -19 70 -29 24 -11 76 -47 114 -81 39 -34 98 -75 131
-92 34 -16 67 -36 74 -45 8 -9 17 -16 22 -16 4 0 27 -13 51 -29 24 -16 59 -37
78 -48 19 -10 60 -35 90 -55 30 -19 94 -56 141 -81 118 -62 127 -67 186 -106
46 -30 56 -33 78 -23 54 25 9 97 -175 280 -110 110 -210 205 -250 236 -19 16
-93 84 -165 151 -71 68 -146 137 -165 153 l-35 31 117 -34 c64 -19 152 -50
195 -69 44 -19 124 -47 179 -61 102 -27 262 -77 325 -102 41 -17 84 -14 84 4
0 7 -207 116 -460 243 -253 127 -476 244 -495 260 -19 17 -56 42 -82 57 -51
30 -64 49 -24 33 13 -5 26 -7 28 -5 6 6 215 -31 273 -49 28 -8 84 -20 125 -26
41 -6 98 -17 125 -25 77 -21 170 -34 285 -40 120 -6 147 4 136 49 -4 18 -19
30 -59 44 -28 11 -104 46 -167 77 -63 32 -137 66 -165 76 -27 11 -86 35 -130
54 -44 18 -95 39 -114 47 -19 7 -69 30 -110 50 l-76 37 85 -3 c47 -2 154 -11
239 -20 165 -18 205 -15 157 9 -16 8 -35 15 -43 15 -8 0 -38 11 -66 24 -29 13
-68 27 -87 31 -19 4 -69 21 -110 38 -85 34 -204 71 -300 92 -75 17 -201 57
-280 90 -92 37 -409 136 -581 180 -184 48 -246 74 -315 132 -37 31 -64 62 -64
73 0 11 -5 31 -12 44 -24 54 42 81 189 77 68 -2 75 0 112 29 26 22 47 30 66
28 45 -5 61 37 68 173 9 169 10 172 85 184 82 13 87 20 72 87 -7 29 -19 62
-26 73 -16 23 -18 71 -4 80 6 4 33 -1 60 -11 48 -17 50 -17 71 2 16 14 20 26
15 53 -6 36 24 90 78 140 14 14 26 30 26 37 0 7 20 33 43 56 24 24 54 59 67
78 63 94 165 184 203 178 13 -2 41 -31 71 -74 28 -39 79 -98 114 -131 34 -34
62 -66 62 -71 0 -12 95 -72 114 -72 8 0 24 -11 37 -24 17 -18 27 -22 36 -14 9
7 17 7 28 -2 9 -7 26 -10 42 -6 16 4 48 8 73 10 76 7 144 45 171 96 21 38 50
48 141 49 25 1 59 7 75 15 15 8 40 20 54 26 32 14 49 48 49 94 0 38 14 53 58
62 17 4 37 13 43 20 6 8 20 14 32 14 27 0 82 35 140 88 54 49 60 50 187 17 87
-23 182 -15 299 24 79 27 126 46 139 56 2 2 -8 20 -23 40 -40 61 -29 95 32 95
18 0 57 9 88 21 44 16 74 20 133 18 78 -4 142 13 142 37 0 14 -33 44 -105 92
-75 50 -209 122 -228 122 -7 0 -22 9 -32 20 -10 11 -23 20 -29 20 -36 0 -216
107 -216 128 0 8 88 32 141 39 21 3 69 -5 120 -21 98 -29 287 -61 445 -75 87
-8 118 -7 150 4 22 7 72 17 112 20 43 5 72 12 71 19 0 6 -24 29 -52 51 -37 29
-53 49 -55 69 -5 38 23 66 64 66 36 0 47 9 35 29 -11 17 -212 99 -286 117 -33
8 -80 22 -105 31 -25 8 -67 19 -94 24 -47 8 -96 32 -96 47 1 16 19 31 94 72
74 40 78 44 60 57 -40 30 -152 82 -234 108 -74 23 -144 36 -415 75 -33 5 -89
14 -125 19 -36 5 -110 13 -165 16 -55 4 -125 11 -155 16 -59 10 -372 15 -386
7 -8 -5 -204 7 -249 15 -11 2 -47 1 -81 -3z m-2943 -5321 c-9 -22 -10 -22 -10
-3 -1 11 2 24 6 27 12 12 14 0 4 -24z"/>
</g>
</svg>
